<?xml version="1.0" encoding="UTF-8"?>
<svg id="Layer_1" data-name="Layer 1" xmlns="http://www.w3.org/2000/svg" xmlns:xlink="http://www.w3.org/1999/xlink" viewBox="0 0 164.82 116.58">
  <defs>
    <style>
      .cls-1 {
        stroke: url(#linear-gradient-17);
      }

      .cls-1, .cls-2, .cls-3, .cls-4, .cls-5, .cls-6, .cls-7, .cls-8, .cls-9, .cls-10, .cls-11, .cls-12, .cls-13, .cls-14, .cls-15, .cls-16, .cls-17, .cls-18, .cls-19, .cls-20, .cls-21, .cls-22, .cls-23, .cls-24, .cls-25, .cls-26, .cls-27, .cls-28, .cls-29, .cls-30, .cls-31, .cls-32, .cls-33, .cls-34, .cls-35, .cls-36, .cls-37, .cls-38 {
        fill: none;
        stroke-linejoin: round;
        stroke-width: 2px;
      }

      .cls-2 {
        stroke: url(#linear-gradient-12);
      }

      .cls-3 {
        stroke: url(#linear-gradient-25);
      }

      .cls-4 {
        stroke: url(#linear-gradient-35);
      }

      .cls-5 {
        stroke: url(#linear-gradient-38);
      }

      .cls-6 {
        stroke: url(#linear-gradient-9);
      }

      .cls-7 {
        stroke: url(#linear-gradient-26);
      }

      .cls-8 {
        stroke: url(#linear-gradient-5);
      }

      .cls-9 {
        stroke: url(#linear-gradient);
      }

      .cls-39 {
        fill: #efe6ff;
      }

      .cls-10 {
        stroke: url(#linear-gradient-2);
      }

      .cls-11 {
        stroke: url(#linear-gradient-23);
      }

      .cls-12 {
        stroke: url(#linear-gradient-20);
      }

      .cls-13 {
        stroke: url(#linear-gradient-14);
      }

      .cls-14 {
        stroke: url(#linear-gradient-16);
      }

      .cls-15 {
        stroke: url(#linear-gradient-4);
      }

      .cls-16 {
        stroke: url(#linear-gradient-19);
      }

      .cls-17 {
        stroke: url(#linear-gradient-32);
      }

      .cls-18 {
        stroke: url(#linear-gradient-24);
      }

      .cls-19 {
        stroke: url(#linear-gradient-33);
      }

      .cls-20 {
        stroke: url(#linear-gradient-34);
      }

      .cls-21 {
        stroke: url(#linear-gradient-31);
      }

      .cls-22 {
        stroke: url(#linear-gradient-6);
      }

      .cls-23 {
        stroke: url(#linear-gradient-22);
      }

      .cls-24 {
        stroke: url(#linear-gradient-10);
      }

      .cls-25 {
        stroke: url(#linear-gradient-7);
      }

      .cls-26 {
        stroke: url(#linear-gradient-11);
      }

      .cls-27 {
        stroke: url(#linear-gradient-21);
      }

      .cls-28 {
        stroke: url(#linear-gradient-28);
      }

      .cls-29 {
        stroke: url(#linear-gradient-30);
      }

      .cls-30 {
        stroke: url(#linear-gradient-15);
      }

      .cls-40 {
        fill: #fdffa3;
        stroke: #fbb03b;
        stroke-miterlimit: 10;
      }

      .cls-31 {
        stroke: url(#linear-gradient-3);
      }

      .cls-32 {
        stroke: url(#linear-gradient-37);
      }

      .cls-33 {
        stroke: url(#linear-gradient-13);
      }

      .cls-34 {
        stroke: url(#linear-gradient-18);
      }

      .cls-35 {
        stroke: url(#linear-gradient-29);
      }

      .cls-36 {
        stroke: url(#linear-gradient-27);
      }

      .cls-37 {
        stroke: url(#linear-gradient-36);
      }

      .cls-38 {
        stroke: url(#linear-gradient-8);
      }
    </style>
    <linearGradient id="linear-gradient" x1="120.57" y1="3.64" x2="138.13" y2="21.2" gradientUnits="userSpaceOnUse">
      <stop offset="0" stop-color="#ff3fca"/>
      <stop offset=".16" stop-color="#f737d3"/>
      <stop offset=".41" stop-color="#e423ec"/>
      <stop offset=".57" stop-color="#d615ff"/>
      <stop offset=".99" stop-color="#7b0094"/>
    </linearGradient>
    <linearGradient id="linear-gradient-2" x1="113.55" y1="27.92" x2="145.68" y2="60.05" xlink:href="#linear-gradient"/>
    <linearGradient id="linear-gradient-3" x1="107.07" y1="32.33" x2="113.11" y2="38.38" xlink:href="#linear-gradient"/>
    <linearGradient id="linear-gradient-4" x1="137.79" y1="35.04" x2="161.74" y2="58.99" xlink:href="#linear-gradient"/>
    <linearGradient id="linear-gradient-5" x1="112.53" y1="68.94" x2="131.12" y2="87.53" xlink:href="#linear-gradient"/>
    <linearGradient id="linear-gradient-6" x1="128.73" y1="69.22" x2="146.59" y2="87.08" xlink:href="#linear-gradient"/>
    <linearGradient id="linear-gradient-7" x1="16.09" x2="33.65" y2="21.2" xlink:href="#linear-gradient"/>
    <linearGradient id="linear-gradient-8" x1="8.81" y1="28.18" x2="40.11" y2="59.48" xlink:href="#linear-gradient"/>
    <linearGradient id="linear-gradient-9" x1="-7.52" y1="35.04" x2="16.44" y2="58.99" xlink:href="#linear-gradient"/>
    <linearGradient id="linear-gradient-10" x1="40.38" y1="31.66" x2="48.27" y2="39.56" xlink:href="#linear-gradient"/>
    <linearGradient id="linear-gradient-11" x1="8.33" y1="69.22" x2="26.19" y2="87.08" xlink:href="#linear-gradient"/>
    <linearGradient id="linear-gradient-12" x1="25.54" y1="71.23" x2="42.03" y2="87.72" xlink:href="#linear-gradient"/>
    <linearGradient id="linear-gradient-13" x1="41.69" y1="15.4" x2="59.25" y2="32.96" xlink:href="#linear-gradient"/>
    <linearGradient id="linear-gradient-14" x1="34.41" y1="39.95" x2="66.01" y2="71.55" xlink:href="#linear-gradient"/>
    <linearGradient id="linear-gradient-15" x1="18.09" y1="46.8" x2="42.04" y2="70.75" xlink:href="#linear-gradient"/>
    <linearGradient id="linear-gradient-16" x1="68.78" y1="76.42" x2="72.99" y2="80.62" xlink:href="#linear-gradient"/>
    <linearGradient id="linear-gradient-17" x1="67.88" y1="37.83" x2="73.81" y2="43.77" xlink:href="#linear-gradient"/>
    <linearGradient id="linear-gradient-18" x1="38.12" y1="75.89" x2="47.01" y2="84.77" xlink:href="#linear-gradient"/>
    <linearGradient id="linear-gradient-19" x1="50.46" y1="81.59" x2="68.13" y2="99.27" xlink:href="#linear-gradient"/>
    <linearGradient id="linear-gradient-20" x1="94.28" y1="15.4" x2="111.84" y2="32.96" xlink:href="#linear-gradient"/>
    <linearGradient id="linear-gradient-21" x1="87.26" y1="39.68" x2="119.38" y2="71.81" xlink:href="#linear-gradient"/>
    <linearGradient id="linear-gradient-22" x1="80.54" y1="76.42" x2="84.75" y2="80.62" xlink:href="#linear-gradient"/>
    <linearGradient id="linear-gradient-23" x1="79.76" y1="37.87" x2="85.62" y2="43.73" xlink:href="#linear-gradient"/>
    <linearGradient id="linear-gradient-24" x1="111.5" y1="46.8" x2="135.45" y2="70.75" xlink:href="#linear-gradient"/>
    <linearGradient id="linear-gradient-25" x1="86.07" y1="80.53" x2="104.83" y2="99.29" xlink:href="#linear-gradient"/>
    <linearGradient id="linear-gradient-26" x1="106.89" y1="75.62" x2="116.46" y2="85.18" xlink:href="#linear-gradient"/>
    <linearGradient id="linear-gradient-27" x1="67.99" y1="19.55" x2="85.55" y2="37.11" xlink:href="#linear-gradient"/>
    <linearGradient id="linear-gradient-28" x1="60.72" y1="44.08" x2="92.85" y2="76.21" xlink:href="#linear-gradient"/>
    <linearGradient id="linear-gradient-29" x1="62.09" y1="76.03" x2="64.74" y2="78.69" xlink:href="#linear-gradient"/>
    <linearGradient id="linear-gradient-30" x1="44.38" y1="50.95" x2="68.33" y2="74.9" xlink:href="#linear-gradient"/>
    <linearGradient id="linear-gradient-31" x1="85.21" y1="50.95" x2="109.16" y2="74.9" xlink:href="#linear-gradient"/>
    <linearGradient id="linear-gradient-32" x1="66.6" y1="78.42" x2="71.09" y2="82.91" xlink:href="#linear-gradient"/>
    <linearGradient id="linear-gradient-33" x1="83.03" y1="78.32" x2="87.77" y2="83.06" xlink:href="#linear-gradient"/>
    <linearGradient id="linear-gradient-34" x1="34.87" y1="83.51" x2="51.45" y2="100.09" xlink:href="#linear-gradient"/>
    <linearGradient id="linear-gradient-35" x1="102.49" y1="83.31" x2="119.61" y2="100.43" xlink:href="#linear-gradient"/>
    <linearGradient id="linear-gradient-36" x1="59.77" y1="84.68" x2="78.54" y2="103.45" xlink:href="#linear-gradient"/>
    <linearGradient id="linear-gradient-37" x1="75.69" y1="84.68" x2="94.45" y2="103.45" xlink:href="#linear-gradient"/>
    <linearGradient id="linear-gradient-38" x1="37.98" y1="56.66" x2="114.86" y2="133.54" xlink:href="#linear-gradient"/>
  </defs>
  <g>
    <circle class="cls-39" cx="132.65" cy="16.76" r="11.42"/>
    <path class="cls-39" d="M147.52,34.52v28.13c0,2.36-1.91,4.27-4.27,4.27h-13.03v-21.45c0-.95-.39-1.82-1.01-2.45-.63-.62-1.49-1.01-2.45-1.01-1.91,0-3.46,1.55-3.46,3.46v21.45h-1.27c-.28,0-.55-.03-.81-.08v-20.56c0-2.08-1.49-3.82-3.46-4.19v-7.58c0-2.36,1.91-4.27,4.27-4.27h21.21c2.36,0,4.27,1.91,4.27,4.27Z"/>
    <path class="cls-39" d="M115.69,35.08v6.93h-6.92v-2.34c2.84-.61,5.3-2.29,6.92-4.59Z"/>
    <rect class="cls-39" x="149.6" y="30.25" width="6.92" height="42.21" rx="3.46" ry="3.46"/>
    <path class="cls-39" d="M130.92,72.46v20.07c0,1.91-1.55,3.46-3.46,3.46h-4.84c-.78,0-1.5-.26-2.08-.69v-11.07c0-1.13-.55-2.14-1.38-2.77v-3.38c1.25-.73,2.08-2.1,2.08-3.65v-5.13c.42-.18,.89-.28,1.38-.28h.69v11.76c0,1.91,1.55,3.46,3.46,3.46s3.46-1.55,3.46-3.46v-10.38c.44,.57,.69,1.29,.69,2.08Z"/>
    <rect class="cls-39" x="135.07" y="69" width="11.76" height="26.99" rx="5" ry="5"/>
    <circle class="cls-39" cx="28.16" cy="16.76" r="11.42"/>
    <path class="cls-39" d="M43.04,34.52v7.5c-2.3,.06-4.15,1.94-4.15,4.26v20.63s-.08,0-.12,0h-1.96v-21.45c0-.95-.39-1.82-1.01-2.45-.63-.62-1.49-1.01-2.45-1.01-1.91,0-3.46,1.55-3.46,3.46v21.45h-12.34c-2.36,0-4.27-1.91-4.27-4.27v-28.13c0-2.36,1.91-4.27,4.27-4.27h21.21c2.36,0,4.27,1.91,4.27,4.27Z"/>
    <rect class="cls-39" x="4.29" y="30.25" width="6.92" height="42.21" rx="3.46" ry="3.46"/>
    <path class="cls-39" d="M52.04,39.81v2.21h-6.92v-6.04c1.74,2.01,4.17,3.42,6.92,3.83Z"/>
    <rect class="cls-39" x="14.67" y="69" width="11.76" height="26.99" rx="5" ry="5"/>
    <path class="cls-39" d="M42.35,78.6v2.44c-1.22,.54-2.08,1.76-2.08,3.18v11.48c-.42,.18-.89,.28-1.38,.28h-4.84c-1.91,0-3.46-1.55-3.46-3.46v-9.69c.63,.84,1.64,1.38,2.77,1.38,1.91,0,3.46-1.55,3.46-3.46v-11.76h2.08v5.42c0,2.08,1.49,3.82,3.46,4.19Z"/>
    <path class="cls-39" d="M65.18,28.52c0,6.3-5.11,11.42-11.42,11.42-.59,0-1.17-.04-1.73-.13-2.75-.42-5.18-1.82-6.92-3.83-1.72-2-2.77-4.6-2.77-7.45,0-6.3,5.11-11.42,11.42-11.42s11.42,5.11,11.42,11.42Z"/>
    <path class="cls-39" d="M68.64,46.25c-1.97,.37-3.46,2.1-3.46,4.19v28.17c-.26,.06-.53,.08-.81,.08h-1.27v-29.06c0-.95-.39-1.82-1.01-2.45-.63-.62-1.49-1.01-2.45-1.01-1.91,0-3.46,1.55-3.46,3.46v29.06h-13.03c-.28,0-.55-.03-.81-.08-1.97-.37-3.46-2.1-3.46-4.19v-28.13c0-2.32,1.85-4.21,4.15-4.26,.03,0,.08,0,.12,0h21.21c2.35,0,4.25,1.89,4.27,4.23Z"/>
    <path class="cls-39" d="M36.81,45.47v35.29c0,1.91-1.55,3.46-3.46,3.46-1.13,0-2.14-.55-2.77-1.38-.44-.57-.69-1.29-.69-2.08V45.47c0-1.91,1.55-3.46,3.46-3.46,.95,0,1.82,.39,2.45,1.01,.62,.63,1.01,1.49,1.01,2.45Z"/>
    <path class="cls-39" d="M71.41,82.84h5.54c-.63,.84-1.64,1.38-2.77,1.38s-2.14-.55-2.77-1.38Z"/>
    <path class="cls-39" d="M77.64,45.47v.69h-6.92v-.69c0-1.7,1.23-3.12,2.86-3.4,1.08,.75,2.28,1.31,3.58,1.65,.3,.51,.48,1.11,.48,1.76Z"/>
    <path class="cls-39" d="M52.04,84.22v1.74c-3.36,.26-6.59,.57-9.69,.93-.7,.08-1.39,.16-2.08,.25v-2.93c0-1.42,.86-2.64,2.08-3.18,.42-.18,.89-.28,1.38-.28h4.84c1.91,0,3.46,1.55,3.46,3.46Z"/>
    <path class="cls-39" d="M67.95,84.22v1.38c-.84,.63-1.38,1.64-1.38,2.77v18.68c-.57,.44-1.29,.69-2.08,.69h-4.84c-1.91,0-3.46-1.55-3.46-3.46v-19.37c0,.26,.03,.5,.08,.74,.33,1.56,1.72,2.72,3.38,2.72,1.79,0,3.26-1.36,3.44-3.09,.01-.12,.02-.24,.02-.37v-4.15h1.38c.56,0,1.09,.13,1.55,.37,.53,.27,.99,.67,1.32,1.16,.37,.55,.59,1.22,.59,1.94Z"/>
    <path class="cls-39" d="M117.77,28.52c0,2.44-.77,4.71-2.08,6.56-1.62,2.3-4.08,3.99-6.92,4.59-.78,.17-1.59,.26-2.42,.26-6.3,0-11.42-5.11-11.42-11.42s5.11-11.42,11.42-11.42,11.42,5.11,11.42,11.42Z"/>
    <path class="cls-39" d="M121.23,46.28v28.13c0,1.56-.83,2.92-2.08,3.65-.64,.39-1.39,.62-2.19,.62h-13.03v-29.06c0-.95-.39-1.82-1.01-2.45-.63-.62-1.49-1.01-2.45-1.01-1.91,0-3.46,1.55-3.46,3.46v29.06h-1.27c-.28,0-.55-.03-.81-.08v-28.17c0-2.08-1.49-3.82-3.46-4.19,.02-2.35,1.92-4.23,4.27-4.23h21.21c.28,0,.55,.03,.81,.08,1.97,.37,3.46,2.1,3.46,4.19Z"/>
    <path class="cls-39" d="M83.17,82.84h5.54c-.63,.84-1.64,1.38-2.77,1.38s-2.14-.55-2.77-1.38Z"/>
    <path class="cls-39" d="M89.4,45.47v.69h-6.92v-.69c0-.64,.17-1.25,.48-1.76,1.3-.34,2.5-.9,3.58-1.65,.71,.12,1.36,.46,1.85,.95,.62,.63,1.01,1.49,1.01,2.45Z"/>
    <path class="cls-39" d="M130.22,45.47v35.29c0,1.91-1.55,3.46-3.46,3.46s-3.46-1.55-3.46-3.46V45.47c0-1.91,1.55-3.46,3.46-3.46,.95,0,1.82,.39,2.45,1.01,.62,.63,1.01,1.49,1.01,2.45Z"/>
    <path class="cls-39" d="M104.62,84.22v20.07c0,1.91-1.55,3.46-3.46,3.46h-4.84c-.78,0-1.5-.26-2.08-.69v-18.68c0-1.13-.55-2.14-1.38-2.77v-1.38c0-1.91,1.55-3.46,3.46-3.46h.69v4.15c0,.14,0,.27,.03,.4,.19,1.72,1.66,3.06,3.43,3.06,1.64,0,3.01-1.14,3.37-2.67,.06-.26,.09-.52,.09-.79v-2.77c.44,.57,.69,1.29,.69,2.08Z"/>
    <path class="cls-39" d="M120.54,84.22v3.1c-.46-.06-.92-.12-1.38-.17-3.29-.41-6.76-.77-10.38-1.07v-1.85c0-1.91,1.55-3.46,3.46-3.46h4.84c.78,0,1.5,.26,2.08,.69,.84,.63,1.38,1.64,1.38,2.77Z"/>
    <path class="cls-39" d="M91.48,32.67c0,3.9-1.95,7.34-4.93,9.4-1.08,.75-2.28,1.31-3.58,1.65-.93,.24-1.9,.37-2.9,.37s-1.97-.13-2.9-.37c-1.3-.34-2.5-.9-3.58-1.65-2.98-2.06-4.93-5.5-4.93-9.4,0-6.3,5.11-11.42,11.42-11.42s11.42,5.11,11.42,11.42Z"/>
    <path class="cls-39" d="M94.93,50.43v28.17c-.02,2.35-1.92,4.23-4.27,4.23h-21.21c-.76,0-1.47-.2-2.09-.55-.33-.48-.79-.89-1.32-1.16-.53-.7-.85-1.58-.86-2.53v-28.17c0-2.08,1.49-3.82,3.46-4.19,.26-.06,.53-.08,.81-.08h21.21c.28,0,.55,.03,.81,.08,1.97,.37,3.46,2.1,3.46,4.19Z"/>
    <path class="cls-39" d="M67.36,82.28c-.52-.28-.97-.68-1.32-1.16,.53,.27,.99,.67,1.32,1.16Z"/>
    <path class="cls-39" d="M63.11,49.62v35.29c0,.12,0,.25-.02,.37-.18,1.74-1.65,3.09-3.44,3.09-1.65,0-3.04-1.16-3.38-2.72-.06-.24-.08-.48-.08-.74V49.62c0-1.91,1.55-3.46,3.46-3.46,.95,0,1.82,.39,2.45,1.01,.62,.63,1.01,1.49,1.01,2.45Z"/>
    <path class="cls-39" d="M103.93,49.62v35.29c0,.27-.03,.53-.09,.79-.36,1.53-1.73,2.67-3.37,2.67-1.77,0-3.24-1.34-3.43-3.06-.02-.13-.03-.26-.03-.4V49.62c0-1.91,1.55-3.46,3.46-3.46,.95,0,1.82,.39,2.45,1.01,.62,.63,1.01,1.49,1.01,2.45Z"/>
    <path class="cls-39" d="M75.27,84.94c-2.12,.02-4.21,.06-6.28,.12,.33-.1,.67-.15,1.03-.15h4.84c.14,0,.27,0,.4,.03Z"/>
    <path class="cls-39" d="M91.94,85.11c-2.14-.08-4.3-.12-6.5-.16,.16-.03,.33-.04,.5-.04h4.84c.4,0,.8,.07,1.16,.2Z"/>
    <path class="cls-39" d="M52.04,85.96v18.32c0,1.91-1.55,3.46-3.46,3.46h-4.84c-1.91,0-3.46-1.55-3.46-3.46v-17.14c.69-.09,1.38-.17,2.08-.25,3.09-.36,6.32-.67,9.69-.93Z"/>
    <path class="cls-39" d="M120.54,87.32v16.97c0,1.91-1.55,3.46-3.46,3.46h-4.84c-1.91,0-3.46-1.55-3.46-3.46v-18.21c3.62,.3,7.09,.66,10.38,1.07,.46,.06,.93,.11,1.38,.17Z"/>
    <path class="cls-39" d="M78.33,88.37v20.07c0,1.91-1.55,3.46-3.46,3.46h-4.84c-1.91,0-3.46-1.55-3.46-3.46v-20.07c0-1.13,.55-2.14,1.38-2.77,.31-.24,.66-.42,1.04-.54,2.06-.06,4.16-.1,6.28-.12,1.72,.19,3.06,1.66,3.06,3.43Z"/>
    <path class="cls-39" d="M94.24,88.37v20.07c0,1.91-1.55,3.46-3.46,3.46h-4.84c-1.91,0-3.46-1.55-3.46-3.46v-20.07c0-1.74,1.28-3.18,2.95-3.42h0c2.2,.03,4.36,.08,6.5,.16h0c.33,.12,.64,.28,.91,.49,.84,.63,1.38,1.64,1.38,2.77Z"/>
    <path class="cls-39" d="M153.75,99.44c0,8.03-33.15,14.53-74.04,14.53S5.68,107.47,5.68,99.44c0-2.52,3.26-4.89,9-6.95,3.2-1.15,7.16-2.21,11.76-3.14,1.34-.27,2.72-.53,4.15-.78,3.02-.53,6.26-1,9.69-1.43v17.14c0,1.91,1.55,3.46,3.46,3.46h4.84c1.91,0,3.46-1.55,3.46-3.46v-18.32c1.36-.11,2.75-.21,4.15-.3,.03,0,.06,0,.08,0,.33,1.56,1.72,2.72,3.38,2.72,1.79,0,3.26-1.36,3.44-3.09,1.6-.07,3.22-.13,4.86-.19,.35,0,.69-.02,1.04-.03-.38,.12-.73,.3-1.04,.54-.84,.63-1.38,1.64-1.38,2.77v20.07c0,1.91,1.55,3.46,3.46,3.46h4.84c1.91,0,3.46-1.55,3.46-3.46v-20.07c0-1.77-1.34-3.24-3.06-3.43,1.47-.02,2.95-.03,4.44-.03,1.92,0,3.83,.01,5.72,.04-1.67,.24-2.95,1.68-2.95,3.42v20.07c0,1.91,1.55,3.46,3.46,3.46h4.84c1.91,0,3.46-1.55,3.46-3.46v-20.07c0-1.13-.55-2.14-1.38-2.77-.28-.21-.58-.37-.91-.49,.31,0,.61,.01,.91,.03,1.4,.05,2.8,.1,4.18,.17,.19,1.72,1.66,3.06,3.43,3.06,1.64,0,3.01-1.14,3.37-2.67,.26,.02,.52,.03,.78,.06,1.4,.1,2.79,.2,4.15,.32v18.21c0,1.91,1.55,3.46,3.46,3.46h4.84c1.91,0,3.46-1.55,3.46-3.46v-16.97c3.71,.48,7.18,1.02,10.38,1.63,1.44,.27,2.82,.55,4.15,.85,4.69,1.03,8.64,2.2,11.68,3.47,4.49,1.87,7,3.96,7,6.17Z"/>
  </g>
  <g>
    <circle class="cls-9" cx="129.35" cy="12.42" r="11.42"/>
    <path class="cls-10" d="M144.23,30.18v28.13c0,2.36-1.91,4.27-4.27,4.27h-13.03v-21.45c0-.95-.39-1.82-1.01-2.45-.63-.62-1.49-1.01-2.45-1.01-1.91,0-3.46,1.55-3.46,3.46v21.45h-1.27c-.28,0-.55-.03-.81-.08v-20.56c0-2.08-1.49-3.82-3.46-4.19v-7.58c0-2.36,1.91-4.27,4.27-4.27h21.21c2.36,0,4.27,1.91,4.27,4.27Z"/>
    <path class="cls-31" d="M112.4,30.74v6.93h-6.92v-2.34c2.84-.61,5.3-2.29,6.92-4.59Z"/>
    <rect class="cls-15" x="146.31" y="25.91" width="6.92" height="42.21" rx="3.46" ry="3.46"/>
    <path class="cls-8" d="M127.62,68.12v20.07c0,1.91-1.55,3.46-3.46,3.46h-4.84c-.78,0-1.5-.26-2.08-.69v-11.07c0-1.13-.55-2.14-1.38-2.77v-3.38c1.25-.73,2.08-2.1,2.08-3.65v-5.13c.42-.18,.89-.28,1.38-.28h.69v11.76c0,1.91,1.55,3.46,3.46,3.46s3.46-1.55,3.46-3.46v-10.38c.44,.57,.69,1.29,.69,2.08Z"/>
    <rect class="cls-22" x="131.77" y="64.66" width="11.76" height="26.99" rx="5" ry="5"/>
    <circle class="cls-25" cx="24.87" cy="12.42" r="11.42"/>
    <path class="cls-38" d="M39.75,30.18v7.5c-2.3,.06-4.15,1.94-4.15,4.26v20.63s-.08,0-.12,0h-1.96v-21.45c0-.95-.39-1.82-1.01-2.45-.63-.62-1.49-1.01-2.45-1.01-1.91,0-3.46,1.55-3.46,3.46v21.45H14.26c-2.36,0-4.27-1.91-4.27-4.27V30.18c0-2.36,1.91-4.27,4.27-4.27h21.21c2.36,0,4.27,1.91,4.27,4.27Z"/>
    <rect class="cls-6" x="1" y="25.91" width="6.92" height="42.21" rx="3.46" ry="3.46"/>
    <path class="cls-24" d="M48.74,35.47v2.21h-6.92v-6.04c1.74,2.01,4.17,3.42,6.92,3.83Z"/>
    <rect class="cls-26" x="11.38" y="64.66" width="11.76" height="26.99" rx="5" ry="5"/>
    <path class="cls-2" d="M39.06,74.26v2.44c-1.22,.54-2.08,1.76-2.08,3.18v11.48c-.42,.18-.89,.28-1.38,.28h-4.84c-1.91,0-3.46-1.55-3.46-3.46v-9.69c.63,.84,1.64,1.38,2.77,1.38,1.91,0,3.46-1.55,3.46-3.46v-11.76h2.08v5.42c0,2.08,1.49,3.82,3.46,4.19Z"/>
    <path class="cls-33" d="M61.89,24.18c0,6.3-5.11,11.42-11.42,11.42-.59,0-1.17-.04-1.73-.13-2.75-.42-5.18-1.82-6.92-3.83-1.72-2-2.77-4.6-2.77-7.45,0-6.3,5.11-11.42,11.42-11.42s11.42,5.11,11.42,11.42Z"/>
    <path class="cls-13" d="M65.35,41.91c-1.97,.37-3.46,2.1-3.46,4.19v28.17c-.26,.06-.53,.08-.81,.08h-1.27v-29.06c0-.95-.39-1.82-1.01-2.45-.63-.62-1.49-1.01-2.45-1.01-1.91,0-3.46,1.55-3.46,3.46v29.06h-13.03c-.28,0-.55-.03-.81-.08-1.97-.37-3.46-2.1-3.46-4.19v-28.13c0-2.32,1.85-4.21,4.15-4.26,.03,0,.08,0,.12,0h21.21c2.35,0,4.25,1.89,4.27,4.23Z"/>
    <path class="cls-30" d="M33.52,41.13v35.29c0,1.91-1.55,3.46-3.46,3.46-1.13,0-2.14-.55-2.77-1.38-.44-.57-.69-1.29-.69-2.08V41.13c0-1.91,1.55-3.46,3.46-3.46,.95,0,1.82,.39,2.45,1.01,.62,.63,1.01,1.49,1.01,2.45Z"/>
    <path class="cls-14" d="M68.12,78.5h5.54c-.63,.84-1.64,1.38-2.77,1.38s-2.14-.55-2.77-1.38Z"/>
    <path class="cls-1" d="M74.34,41.13v.69h-6.92v-.69c0-1.7,1.23-3.12,2.86-3.4,1.08,.75,2.28,1.31,3.58,1.65,.3,.51,.48,1.11,.48,1.76Z"/>
    <path class="cls-34" d="M48.74,79.88v1.74c-3.36,.26-6.59,.57-9.69,.93-.7,.08-1.39,.16-2.08,.25v-2.93c0-1.42,.86-2.64,2.08-3.18,.42-.18,.89-.28,1.38-.28h4.84c1.91,0,3.46,1.55,3.46,3.46Z"/>
    <path class="cls-16" d="M64.66,79.88v1.38c-.84,.63-1.38,1.64-1.38,2.77v18.68c-.57,.44-1.29,.69-2.08,.69h-4.84c-1.91,0-3.46-1.55-3.46-3.46v-19.37c0,.26,.03,.5,.08,.74,.33,1.56,1.72,2.72,3.38,2.72,1.79,0,3.26-1.36,3.44-3.09,.01-.12,.02-.24,.02-.37v-4.15h1.38c.56,0,1.09,.13,1.55,.37,.53,.27,.99,.67,1.32,1.16,.37,.55,.59,1.22,.59,1.94Z"/>
    <path class="cls-12" d="M114.48,24.18c0,2.44-.77,4.71-2.08,6.56-1.62,2.3-4.08,3.99-6.92,4.59-.78,.17-1.59,.26-2.42,.26-6.3,0-11.42-5.11-11.42-11.42s5.11-11.42,11.42-11.42,11.42,5.11,11.42,11.42Z"/>
    <path class="cls-27" d="M117.94,41.94v28.13c0,1.56-.83,2.92-2.08,3.65-.64,.39-1.39,.62-2.19,.62h-13.03v-29.06c0-.95-.39-1.82-1.01-2.45-.63-.62-1.49-1.01-2.45-1.01-1.91,0-3.46,1.55-3.46,3.46v29.06h-1.27c-.28,0-.55-.03-.81-.08v-28.17c0-2.08-1.49-3.82-3.46-4.19,.02-2.35,1.92-4.23,4.27-4.23h21.21c.28,0,.55,.03,.81,.08,1.97,.37,3.46,2.1,3.46,4.19Z"/>
    <path class="cls-23" d="M79.88,78.5h5.54c-.63,.84-1.64,1.38-2.77,1.38s-2.14-.55-2.77-1.38Z"/>
    <path class="cls-11" d="M86.11,41.13v.69h-6.92v-.69c0-.64,.17-1.25,.48-1.76,1.3-.34,2.5-.9,3.58-1.65,.71,.12,1.36,.46,1.85,.95,.62,.63,1.01,1.49,1.01,2.45Z"/>
    <path class="cls-18" d="M126.93,41.13v35.29c0,1.91-1.55,3.46-3.46,3.46s-3.46-1.55-3.46-3.46V41.13c0-1.91,1.55-3.46,3.46-3.46,.95,0,1.82,.39,2.45,1.01,.62,.63,1.01,1.49,1.01,2.45Z"/>
    <path class="cls-3" d="M101.33,79.88v20.07c0,1.91-1.55,3.46-3.46,3.46h-4.84c-.78,0-1.5-.26-2.08-.69v-18.68c0-1.13-.55-2.14-1.38-2.77v-1.38c0-1.91,1.55-3.46,3.46-3.46h.69v4.15c0,.14,0,.27,.03,.4,.19,1.72,1.66,3.06,3.43,3.06,1.64,0,3.01-1.14,3.37-2.67,.06-.26,.09-.52,.09-.79v-2.77c.44,.57,.69,1.29,.69,2.08Z"/>
    <path class="cls-7" d="M117.24,79.88v3.1c-.46-.06-.92-.12-1.38-.17-3.29-.41-6.76-.77-10.38-1.07v-1.85c0-1.91,1.55-3.46,3.46-3.46h4.84c.78,0,1.5,.26,2.08,.69,.84,.63,1.38,1.64,1.38,2.77Z"/>
    <path class="cls-36" d="M88.18,28.33c0,3.9-1.95,7.34-4.93,9.4-1.08,.75-2.28,1.31-3.58,1.65-.93,.24-1.9,.37-2.9,.37s-1.97-.13-2.9-.37c-1.3-.34-2.5-.9-3.58-1.65-2.98-2.06-4.93-5.5-4.93-9.4,0-6.3,5.11-11.42,11.42-11.42s11.42,5.11,11.42,11.42Z"/>
    <path class="cls-28" d="M91.64,46.09v28.17c-.02,2.35-1.92,4.23-4.27,4.23h-21.21c-.76,0-1.47-.2-2.09-.55-.33-.48-.79-.89-1.32-1.16-.53-.7-.85-1.58-.86-2.53v-28.17c0-2.08,1.49-3.82,3.46-4.19,.26-.06,.53-.08,.81-.08h21.21c.28,0,.55,.03,.81,.08,1.97,.37,3.46,2.1,3.46,4.19Z"/>
    <path class="cls-35" d="M64.07,77.94c-.52-.28-.97-.68-1.32-1.16,.53,.27,.99,.67,1.32,1.16Z"/>
    <path class="cls-29" d="M59.81,45.28v35.29c0,.12,0,.25-.02,.37-.18,1.74-1.65,3.09-3.44,3.09-1.65,0-3.04-1.16-3.38-2.72-.06-.24-.08-.48-.08-.74V45.28c0-1.91,1.55-3.46,3.46-3.46,.95,0,1.82,.39,2.45,1.01,.62,.63,1.01,1.49,1.01,2.45Z"/>
    <path class="cls-21" d="M100.64,45.28v35.29c0,.27-.03,.53-.09,.79-.36,1.53-1.73,2.67-3.37,2.67-1.77,0-3.24-1.34-3.43-3.06-.02-.13-.03-.26-.03-.4V45.28c0-1.91,1.55-3.46,3.46-3.46,.95,0,1.82,.39,2.45,1.01,.62,.63,1.01,1.49,1.01,2.45Z"/>
    <path class="cls-17" d="M71.98,80.6c-2.12,.02-4.21,.06-6.28,.12,.33-.1,.67-.15,1.03-.15h4.84c.14,0,.27,0,.4,.03Z"/>
    <path class="cls-19" d="M88.65,80.77c-2.14-.08-4.3-.12-6.5-.16,.16-.03,.33-.04,.5-.04h4.84c.4,0,.8,.07,1.16,.2Z"/>
    <path class="cls-20" d="M48.74,81.62v18.32c0,1.91-1.55,3.46-3.46,3.46h-4.84c-1.91,0-3.46-1.55-3.46-3.46v-17.14c.69-.09,1.38-.17,2.08-.25,3.09-.36,6.32-.67,9.69-.93Z"/>
    <path class="cls-4" d="M117.24,82.98v16.97c0,1.91-1.55,3.46-3.46,3.46h-4.84c-1.91,0-3.46-1.55-3.46-3.46v-18.21c3.62,.3,7.09,.66,10.38,1.07,.46,.06,.93,.11,1.38,.17Z"/>
    <path class="cls-37" d="M75.04,84.03v20.07c0,1.91-1.55,3.46-3.46,3.46h-4.84c-1.91,0-3.46-1.55-3.46-3.46v-20.07c0-1.13,.55-2.14,1.38-2.77,.31-.24,.66-.42,1.04-.54,2.06-.06,4.16-.1,6.28-.12,1.72,.19,3.06,1.66,3.06,3.43Z"/>
    <path class="cls-32" d="M90.95,84.03v20.07c0,1.91-1.55,3.46-3.46,3.46h-4.84c-1.91,0-3.46-1.55-3.46-3.46v-20.07c0-1.74,1.28-3.18,2.95-3.42h0c2.2,.03,4.36,.08,6.5,.16h0c.33,.12,.64,.28,.91,.49,.84,.63,1.38,1.64,1.38,2.77Z"/>
    <path class="cls-5" d="M150.46,95.1c0,8.03-33.15,14.53-74.04,14.53S2.38,103.13,2.38,95.1c0-2.52,3.26-4.89,9-6.95,3.2-1.15,7.16-2.21,11.76-3.14,1.34-.27,2.72-.53,4.15-.78,3.02-.53,6.26-1,9.69-1.43v17.14c0,1.91,1.55,3.46,3.46,3.46h4.84c1.91,0,3.46-1.55,3.46-3.46v-18.32c1.36-.11,2.75-.21,4.15-.3,.03,0,.06,0,.08,0,.33,1.56,1.72,2.72,3.38,2.72,1.79,0,3.26-1.36,3.44-3.09,1.6-.07,3.22-.13,4.86-.19,.35,0,.69-.02,1.04-.03-.38,.12-.73,.3-1.04,.54-.84,.63-1.38,1.64-1.38,2.77v20.07c0,1.91,1.55,3.46,3.46,3.46h4.84c1.91,0,3.46-1.55,3.46-3.46v-20.07c0-1.77-1.34-3.24-3.06-3.43,1.47-.02,2.95-.03,4.44-.03,1.92,0,3.83,.01,5.72,.04-1.67,.24-2.95,1.68-2.95,3.42v20.07c0,1.91,1.55,3.46,3.46,3.46h4.84c1.91,0,3.46-1.55,3.46-3.46v-20.07c0-1.13-.55-2.14-1.38-2.77-.28-.21-.58-.37-.91-.49,.31,0,.61,.01,.91,.03,1.4,.05,2.8,.1,4.18,.17,.19,1.72,1.66,3.06,3.43,3.06,1.64,0,3.01-1.14,3.37-2.67,.26,.02,.52,.03,.78,.06,1.4,.1,2.79,.2,4.15,.32v18.21c0,1.91,1.55,3.46,3.46,3.46h4.84c1.91,0,3.46-1.55,3.46-3.46v-16.97c3.71,.48,7.18,1.02,10.38,1.63,1.44,.27,2.82,.55,4.15,.85,4.69,1.03,8.64,2.2,11.68,3.47,4.49,1.87,7,3.96,7,6.17Z"/>
  </g>
  <path class="cls-40" d="M35.27,92.21l1.6,5.73c.14,.52,.53,.93,1.04,1.11l5.63,1.93c1.28,.44,1.5,2.16,.37,2.91l-4.96,3.29c-.45,.3-.72,.8-.73,1.33l-.1,5.95c-.02,1.35-1.59,2.09-2.65,1.25l-4.66-3.7c-.42-.33-.98-.44-1.49-.28l-5.69,1.74c-1.29,.4-2.48-.86-2.01-2.13l2.08-5.58c.19-.5,.12-1.07-.19-1.51l-3.42-4.87c-.78-1.11,.05-2.63,1.41-2.57l5.95,.25c.54,.02,1.05-.22,1.37-.65l3.58-4.75c.81-1.08,2.52-.76,2.88,.54Z"/>
  <path class="cls-40" d="M11.52,79.74l2.86,2.2c.26,.2,.6,.26,.91,.16l3.44-1.11c.78-.25,1.51,.5,1.24,1.28l-1.21,3.4c-.11,.31-.06,.65,.13,.91l2.12,2.93c.48,.67,0,1.6-.83,1.57l-3.61-.1c-.33,0-.64,.14-.83,.41l-2.13,2.92c-.48,.66-1.52,.48-1.75-.3l-1.02-3.47c-.09-.31-.33-.56-.64-.66l-3.43-1.12c-.78-.26-.93-1.3-.25-1.76l2.98-2.04c.27-.18,.43-.49,.43-.82v-3.61c0-.82,.95-1.29,1.6-.78Z"/>
  <path class="cls-40" d="M151.09,31.64l3.92,3.02c.35,.27,.82,.35,1.24,.22l4.7-1.52c1.07-.34,2.07,.69,1.69,1.75l-1.66,4.66c-.15,.42-.08,.89,.18,1.25l2.89,4.01c.66,.91-.01,2.18-1.14,2.15l-4.94-.14c-.45-.01-.87,.2-1.13,.56l-2.92,3.99c-.66,.91-2.08,.66-2.4-.42l-1.39-4.74c-.13-.43-.45-.77-.88-.91l-4.7-1.54c-1.07-.35-1.27-1.77-.34-2.41l4.08-2.79c.37-.25,.59-.67,.59-1.12v-4.94c.02-1.12,1.31-1.76,2.2-1.07Z"/>
</svg>