<?xml version="1.0" encoding="UTF-8"?>
<svg id="Layer_2" data-name="Layer 2" xmlns="http://www.w3.org/2000/svg" viewBox="0 0 164.82 116.58">
  <defs>
    <style>
      .cls-1 {
        fill: none;
        stroke: #b3b3b3;
        stroke-linejoin: round;
        stroke-width: 2px;
      }
    </style>
  </defs>
  <circle class="cls-1" cx="129.35" cy="12.42" r="11.42"/>
  <path class="cls-1" d="M144.23,30.18v28.13c0,2.36-1.91,4.27-4.27,4.27h-13.03v-21.45c0-.95-.39-1.82-1.01-2.45-.63-.62-1.49-1.01-2.45-1.01-1.91,0-3.46,1.55-3.46,3.46v21.45h-1.27c-.28,0-.55-.03-.81-.08v-20.56c0-2.08-1.49-3.82-3.46-4.19v-7.58c0-2.36,1.91-4.27,4.27-4.27h21.21c2.36,0,4.27,1.91,4.27,4.27Z"/>
  <path class="cls-1" d="M112.4,30.74v6.93h-6.92v-2.34c2.84-.61,5.3-2.29,6.92-4.59Z"/>
  <rect class="cls-1" x="146.31" y="25.91" width="6.92" height="42.21" rx="3.46" ry="3.46"/>
  <path class="cls-1" d="M127.62,68.12v20.07c0,1.91-1.55,3.46-3.46,3.46h-4.84c-.78,0-1.5-.26-2.08-.69v-11.07c0-1.13-.55-2.14-1.38-2.77v-3.38c1.25-.73,2.08-2.1,2.08-3.65v-5.13c.42-.18,.89-.28,1.38-.28h.69v11.76c0,1.91,1.55,3.46,3.46,3.46s3.46-1.55,3.46-3.46v-10.38c.44,.57,.69,1.29,.69,2.08Z"/>
  <rect class="cls-1" x="131.77" y="64.66" width="11.76" height="26.99" rx="5" ry="5"/>
  <circle class="cls-1" cx="24.87" cy="12.42" r="11.42"/>
  <path class="cls-1" d="M39.75,30.18v7.5c-2.3,.06-4.15,1.94-4.15,4.26v20.63s-.08,0-.12,0h-1.96v-21.45c0-.95-.39-1.82-1.01-2.45-.63-.62-1.49-1.01-2.45-1.01-1.91,0-3.46,1.55-3.46,3.46v21.45H14.26c-2.36,0-4.27-1.91-4.27-4.27V30.18c0-2.36,1.91-4.27,4.27-4.27h21.21c2.36,0,4.27,1.91,4.27,4.27Z"/>
  <rect class="cls-1" x="1" y="25.91" width="6.92" height="42.21" rx="3.46" ry="3.46"/>
  <path class="cls-1" d="M48.74,35.47v2.21h-6.92v-6.04c1.74,2.01,4.17,3.42,6.92,3.83Z"/>
  <rect class="cls-1" x="11.38" y="64.66" width="11.76" height="26.99" rx="5" ry="5"/>
  <path class="cls-1" d="M39.06,74.26v2.44c-1.22,.54-2.08,1.76-2.08,3.18v11.48c-.42,.18-.89,.28-1.38,.28h-4.84c-1.91,0-3.46-1.55-3.46-3.46v-9.69c.63,.84,1.64,1.38,2.77,1.38,1.91,0,3.46-1.55,3.46-3.46v-11.76h2.08v5.42c0,2.08,1.49,3.82,3.46,4.19Z"/>
  <path class="cls-1" d="M61.89,24.18c0,6.3-5.11,11.42-11.42,11.42-.59,0-1.17-.04-1.73-.13-2.75-.42-5.18-1.82-6.92-3.83-1.72-2-2.77-4.6-2.77-7.45,0-6.3,5.11-11.42,11.42-11.42s11.42,5.11,11.42,11.42Z"/>
  <path class="cls-1" d="M65.35,41.91c-1.97,.37-3.46,2.1-3.46,4.19v28.17c-.26,.06-.53,.08-.81,.08h-1.27v-29.06c0-.95-.39-1.82-1.01-2.45-.63-.62-1.49-1.01-2.45-1.01-1.91,0-3.46,1.55-3.46,3.46v29.06h-13.03c-.28,0-.55-.03-.81-.08-1.97-.37-3.46-2.1-3.46-4.19v-28.13c0-2.32,1.85-4.21,4.15-4.26,.03,0,.08,0,.12,0h21.21c2.35,0,4.25,1.89,4.27,4.23Z"/>
  <path class="cls-1" d="M33.52,41.13v35.29c0,1.91-1.55,3.46-3.46,3.46-1.13,0-2.14-.55-2.77-1.38-.44-.57-.69-1.29-.69-2.08V41.13c0-1.91,1.55-3.46,3.46-3.46,.95,0,1.82,.39,2.45,1.01,.62,.63,1.01,1.49,1.01,2.45Z"/>
  <path class="cls-1" d="M68.12,78.5h5.54c-.63,.84-1.64,1.38-2.77,1.38s-2.14-.55-2.77-1.38Z"/>
  <path class="cls-1" d="M74.34,41.13v.69h-6.92v-.69c0-1.7,1.23-3.12,2.86-3.4,1.08,.75,2.28,1.31,3.58,1.65,.3,.51,.48,1.11,.48,1.76Z"/>
  <path class="cls-1" d="M48.74,79.88v1.74c-3.36,.26-6.59,.57-9.69,.93-.7,.08-1.39,.16-2.08,.25v-2.93c0-1.42,.86-2.64,2.08-3.18,.42-.18,.89-.28,1.38-.28h4.84c1.91,0,3.46,1.55,3.46,3.46Z"/>
  <path class="cls-1" d="M64.66,79.88v1.38c-.84,.63-1.38,1.64-1.38,2.77v18.68c-.57,.44-1.29,.69-2.08,.69h-4.84c-1.91,0-3.46-1.55-3.46-3.46v-19.37c0,.26,.03,.5,.08,.74,.33,1.56,1.72,2.72,3.38,2.72,1.79,0,3.26-1.36,3.44-3.09,.01-.12,.02-.24,.02-.37v-4.15h1.38c.56,0,1.09,.13,1.55,.37,.53,.27,.99,.67,1.32,1.16,.37,.55,.59,1.22,.59,1.94Z"/>
  <path class="cls-1" d="M114.48,24.18c0,2.44-.77,4.71-2.08,6.56-1.62,2.3-4.08,3.99-6.92,4.59-.78,.17-1.59,.26-2.42,.26-6.3,0-11.42-5.11-11.42-11.42s5.11-11.42,11.42-11.42,11.42,5.11,11.42,11.42Z"/>
  <path class="cls-1" d="M117.94,41.94v28.13c0,1.56-.83,2.92-2.08,3.65-.64,.39-1.39,.62-2.19,.62h-13.03v-29.06c0-.95-.39-1.82-1.01-2.45-.63-.62-1.49-1.01-2.45-1.01-1.91,0-3.46,1.55-3.46,3.46v29.06h-1.27c-.28,0-.55-.03-.81-.08v-28.17c0-2.08-1.49-3.82-3.46-4.19,.02-2.35,1.92-4.23,4.27-4.23h21.21c.28,0,.55,.03,.81,.08,1.97,.37,3.46,2.1,3.46,4.19Z"/>
  <path class="cls-1" d="M79.88,78.5h5.54c-.63,.84-1.64,1.38-2.77,1.38s-2.14-.55-2.77-1.38Z"/>
  <path class="cls-1" d="M86.11,41.13v.69h-6.92v-.69c0-.64,.17-1.25,.48-1.76,1.3-.34,2.5-.9,3.58-1.65,.71,.12,1.36,.46,1.85,.95,.62,.63,1.01,1.49,1.01,2.45Z"/>
  <path class="cls-1" d="M126.93,41.13v35.29c0,1.91-1.55,3.46-3.46,3.46s-3.46-1.55-3.46-3.46V41.13c0-1.91,1.55-3.46,3.46-3.46,.95,0,1.82,.39,2.45,1.01,.62,.63,1.01,1.49,1.01,2.45Z"/>
  <path class="cls-1" d="M101.33,79.88v20.07c0,1.91-1.55,3.46-3.46,3.46h-4.84c-.78,0-1.5-.26-2.08-.69v-18.68c0-1.13-.55-2.14-1.38-2.77v-1.38c0-1.91,1.55-3.46,3.46-3.46h.69v4.15c0,.14,0,.27,.03,.4,.19,1.72,1.66,3.06,3.43,3.06,1.64,0,3.01-1.14,3.37-2.67,.06-.26,.09-.52,.09-.79v-2.77c.44,.57,.69,1.29,.69,2.08Z"/>
  <path class="cls-1" d="M117.24,79.88v3.1c-.46-.06-.92-.12-1.38-.17-3.29-.41-6.76-.77-10.38-1.07v-1.85c0-1.91,1.55-3.46,3.46-3.46h4.84c.78,0,1.5,.26,2.08,.69,.84,.63,1.38,1.64,1.38,2.77Z"/>
  <path class="cls-1" d="M88.18,28.33c0,3.9-1.95,7.34-4.93,9.4-1.08,.75-2.28,1.31-3.58,1.65-.93,.24-1.9,.37-2.9,.37s-1.97-.13-2.9-.37c-1.3-.34-2.5-.9-3.58-1.65-2.98-2.06-4.93-5.5-4.93-9.4,0-6.3,5.11-11.42,11.42-11.42s11.42,5.11,11.42,11.42Z"/>
  <path class="cls-1" d="M91.64,46.09v28.17c-.02,2.35-1.92,4.23-4.27,4.23h-21.21c-.76,0-1.47-.2-2.09-.55-.33-.48-.79-.89-1.32-1.16-.53-.7-.85-1.58-.86-2.53v-28.17c0-2.08,1.49-3.82,3.46-4.19,.26-.06,.53-.08,.81-.08h21.21c.28,0,.55,.03,.81,.08,1.97,.37,3.46,2.1,3.46,4.19Z"/>
  <path class="cls-1" d="M64.07,77.94c-.52-.28-.97-.68-1.32-1.16,.53,.27,.99,.67,1.32,1.16Z"/>
  <path class="cls-1" d="M59.81,45.28v35.29c0,.12,0,.25-.02,.37-.18,1.74-1.65,3.09-3.44,3.09-1.65,0-3.04-1.16-3.38-2.72-.06-.24-.08-.48-.08-.74V45.28c0-1.91,1.55-3.46,3.46-3.46,.95,0,1.82,.39,2.45,1.01,.62,.63,1.01,1.49,1.01,2.45Z"/>
  <path class="cls-1" d="M100.64,45.28v35.29c0,.27-.03,.53-.09,.79-.36,1.53-1.73,2.67-3.37,2.67-1.77,0-3.24-1.34-3.43-3.06-.02-.13-.03-.26-.03-.4V45.28c0-1.91,1.55-3.46,3.46-3.46,.95,0,1.82,.39,2.45,1.01,.62,.63,1.01,1.49,1.01,2.45Z"/>
  <path class="cls-1" d="M71.98,80.6c-2.12,.02-4.21,.06-6.28,.12,.33-.1,.67-.15,1.03-.15h4.84c.14,0,.27,0,.4,.03Z"/>
  <path class="cls-1" d="M88.65,80.77c-2.14-.08-4.3-.12-6.5-.16,.16-.03,.33-.04,.5-.04h4.84c.4,0,.8,.07,1.16,.2Z"/>
  <path class="cls-1" d="M48.74,81.62v18.32c0,1.91-1.55,3.46-3.46,3.46h-4.84c-1.91,0-3.46-1.55-3.46-3.46v-17.14c.69-.09,1.38-.17,2.08-.25,3.09-.36,6.32-.67,9.69-.93Z"/>
  <path class="cls-1" d="M117.24,82.98v16.97c0,1.91-1.55,3.46-3.46,3.46h-4.84c-1.91,0-3.46-1.55-3.46-3.46v-18.21c3.62,.3,7.09,.66,10.38,1.07,.46,.06,.93,.11,1.38,.17Z"/>
  <path class="cls-1" d="M75.04,84.03v20.07c0,1.91-1.55,3.46-3.46,3.46h-4.84c-1.91,0-3.46-1.55-3.46-3.46v-20.07c0-1.13,.55-2.14,1.38-2.77,.31-.24,.66-.42,1.04-.54,2.06-.06,4.16-.1,6.28-.12,1.72,.19,3.06,1.66,3.06,3.43Z"/>
  <path class="cls-1" d="M90.95,84.03v20.07c0,1.91-1.55,3.46-3.46,3.46h-4.84c-1.91,0-3.46-1.55-3.46-3.46v-20.07c0-1.74,1.28-3.18,2.95-3.42h0c2.2,.03,4.36,.08,6.5,.16h0c.33,.12,.64,.28,.91,.49,.84,.63,1.38,1.64,1.38,2.77Z"/>
  <path class="cls-1" d="M150.46,95.1c0,8.03-33.15,14.53-74.04,14.53S2.38,103.13,2.38,95.1c0-2.52,3.26-4.89,9-6.95,3.2-1.15,7.16-2.21,11.76-3.14,1.34-.27,2.72-.53,4.15-.78,3.02-.53,6.26-1,9.69-1.43v17.14c0,1.91,1.55,3.46,3.46,3.46h4.84c1.91,0,3.46-1.55,3.46-3.46v-18.32c1.36-.11,2.75-.21,4.15-.3,.03,0,.06,0,.08,0,.33,1.56,1.72,2.72,3.38,2.72,1.79,0,3.26-1.36,3.44-3.09,1.6-.07,3.22-.13,4.86-.19,.35,0,.69-.02,1.04-.03-.38,.12-.73,.3-1.04,.54-.84,.63-1.38,1.64-1.38,2.77v20.07c0,1.91,1.55,3.46,3.46,3.46h4.84c1.91,0,3.46-1.55,3.46-3.46v-20.07c0-1.77-1.34-3.24-3.06-3.43,1.47-.02,2.95-.03,4.44-.03,1.92,0,3.83,.01,5.72,.04-1.67,.24-2.95,1.68-2.95,3.42v20.07c0,1.91,1.55,3.46,3.46,3.46h4.84c1.91,0,3.46-1.55,3.46-3.46v-20.07c0-1.13-.55-2.14-1.38-2.77-.28-.21-.58-.37-.91-.49,.31,0,.61,.01,.91,.03,1.4,.05,2.8,.1,4.18,.17,.19,1.72,1.66,3.06,3.43,3.06,1.64,0,3.01-1.14,3.37-2.67,.26,.02,.52,.03,.78,.06,1.4,.1,2.79,.2,4.15,.32v18.21c0,1.91,1.55,3.46,3.46,3.46h4.84c1.91,0,3.46-1.55,3.46-3.46v-16.97c3.71,.48,7.18,1.02,10.38,1.63,1.44,.27,2.82,.55,4.15,.85,4.69,1.03,8.64,2.2,11.68,3.47,4.49,1.87,7,3.96,7,6.17Z"/>
</svg>