<?xml version="1.0" encoding="UTF-8"?>
<svg id="Layer_2" data-name="Layer 2" xmlns="http://www.w3.org/2000/svg" viewBox="0 0 139.22 158.23">
  <defs>
    <style>
      .cls-1 {
        fill: none;
        stroke: #b3b3b3;
        stroke-linejoin: round;
        stroke-width: 2px;
      }
    </style>
  </defs>
  <polygon class="cls-1" points="115.08 152.78 117.6 150.28 120.12 152.78 120.12 139.42 115.08 139.42 115.08 152.78"/>
  <path class="cls-1" d="M126.48,54.6V127.15c0,2.51-2.04,4.54-4.54,4.54h-17.85v-7.05h10.01c2.51,0,4.54-2.04,4.54-4.54V50.06h3.29c2.51,0,4.54,2.04,4.54,4.54Z"/>
  <path class="cls-1" d="M114.09,43.01h-20.53v16.63h9.7c.45,0,.82,.37,.82,.82v1.38c0,.45-.37,.82-.82,.82h-9.7v3.53h9.7c.45,0,.82,.37,.82,.82v1.38c0,.45-.37,.82-.82,.82h-9.7v35.89c0,2.51-2.04,4.54-4.54,4.54h-18.21v5.7l-2.52-2.5-.8,.79-1.72,1.71v-5.7h-14.31v15h62.64c2.51,0,4.54-2.04,4.54-4.54V47.55c0-2.51-2.04-4.54-4.54-4.54Zm-35.09,80.03l-2.52-2.5-2.52,2.5v-13.36h5.04v13.36Z"/>
  <polygon class="cls-1" points="111.92 131.73 111.92 145.09 109.4 142.59 106.88 145.09 106.88 131.73 111.92 131.73"/>
  <path class="cls-1" d="M93.56,32.55V105.11c0,2.51-2.04,4.54-4.54,4.54h-18.21v-7.66h-3.31v-.03h13.33c2.51,0,4.54-2.04,4.54-4.54V28.01h3.65c2.51,0,4.54,2.04,4.54,4.54Z"/>
  <polygon class="cls-1" points="67.49 101.96 67.49 101.99 65.77 101.99 65.77 109.65 26.37 109.65 26.37 101.96 57.93 101.96 57.93 108.27 59.29 106.92 60.45 105.77 62.97 108.27 62.97 101.96 67.49 101.96"/>
  <path class="cls-1" d="M85.36,24.86V97.42c0,2.51-2.04,4.54-4.54,4.54h-17.85v-7.05h10.01c2.51,0,4.54-2.04,4.54-4.54V20.32h3.29c2.51,0,4.54,2.03,4.54,4.54Z"/>
  <rect class="cls-1" x="18.18" y="94.91" width="39.75" height="7.05"/>
  <path class="cls-1" d="M72.98,13.27H10.34V94.91h62.64c2.51,0,4.54-2.04,4.54-4.54V17.81c0-2.51-2.04-4.54-4.54-4.54Zm-10.01,25.38c0,.45-.37,.82-.82,.82H25.72c-.45,0-.82-.37-.82-.82v-1.38c0-.45,.37-.82,.82-.82H62.15c.45,0,.82,.37,.82,.82v1.38Zm0-6.55c0,.45-.37,.82-.82,.82H25.72c-.45,0-.82-.37-.82-.82v-1.38c0-.45,.37-.82,.82-.82H62.15c.45,0,.82,.37,.82,.82v1.38Z"/>
  <polygon class="cls-1" points="62.97 94.91 62.97 108.27 60.45 105.77 59.29 106.92 57.93 108.27 57.93 94.91 62.97 94.91"/>
  <path class="cls-1" d="M130.13,57.75h-3.65V127.15c0,2.51-2.04,4.54-4.54,4.54h-17.85v6.31l-2.52-2.5-2.52,2.5v-6.31h-31.55v7.69h39.39v-7.67h5.04v7.67h18.21c2.51,0,4.54-2.04,4.54-4.54V62.29c0-2.51-2.04-4.54-4.54-4.54Zm-56.17,51.93v13.36l2.52-2.5,2.52,2.5v-13.36h-5.04Zm29.3-50.04h-9.7v3.02h9.7c.45,0,.82-.37,.82-.82v-1.38c0-.45-.37-.82-.82-.82Zm0,6.55h-9.7v3.02h9.7c.45,0,.82-.37,.82-.82v-1.38c0-.45-.37-.82-.82-.82Z"/>
  <rect class="cls-1" x="59.29" y="124.65" width="39.75" height="7.05"/>
  <polygon class="cls-1" points="104.08 124.65 104.08 138.01 101.56 135.51 99.05 138.01 99.05 124.65 104.08 124.65"/>
</svg>