<?xml version="1.0" encoding="UTF-8"?>
<svg id="Layer_1" data-name="Layer 1" xmlns="http://www.w3.org/2000/svg" xmlns:xlink="http://www.w3.org/1999/xlink" viewBox="0 0 139.22 158.23">
  <defs>
    <style>
      .cls-1 {
        stroke: url(#linear-gradient-17);
      }

      .cls-1, .cls-2, .cls-3, .cls-4, .cls-5, .cls-6, .cls-7, .cls-8, .cls-9, .cls-10, .cls-11, .cls-12, .cls-13, .cls-14, .cls-15, .cls-16, .cls-17 {
        fill: none;
        stroke-linejoin: round;
        stroke-width: 2px;
      }

      .cls-2 {
        stroke: url(#linear-gradient-12);
      }

      .cls-3 {
        stroke: url(#linear-gradient-9);
      }

      .cls-4 {
        stroke: url(#linear-gradient-5);
      }

      .cls-5 {
        stroke: url(#linear-gradient);
      }

      .cls-6 {
        stroke: url(#linear-gradient-2);
      }

      .cls-7 {
        stroke: url(#linear-gradient-14);
      }

      .cls-8 {
        stroke: url(#linear-gradient-16);
      }

      .cls-9 {
        stroke: url(#linear-gradient-4);
      }

      .cls-10 {
        stroke: url(#linear-gradient-6);
      }

      .cls-18 {
        fill: #e0f2ff;
      }

      .cls-11 {
        stroke: url(#linear-gradient-10);
      }

      .cls-12 {
        stroke: url(#linear-gradient-7);
      }

      .cls-13 {
        stroke: url(#linear-gradient-11);
      }

      .cls-14 {
        stroke: url(#linear-gradient-15);
      }

      .cls-19 {
        fill: #fdffa3;
        stroke: #fbb03b;
        stroke-miterlimit: 10;
      }

      .cls-15 {
        stroke: url(#linear-gradient-3);
      }

      .cls-16 {
        stroke: url(#linear-gradient-13);
      }

      .cls-17 {
        stroke: url(#linear-gradient-8);
      }
    </style>
    <linearGradient id="linear-gradient" x1="136.29" y1="59.45" x2="83.97" y2="150.06" gradientUnits="userSpaceOnUse">
      <stop offset="0" stop-color="#a26aff"/>
      <stop offset=".08" stop-color="#986dfc"/>
      <stop offset=".21" stop-color="#7f77f4"/>
      <stop offset=".38" stop-color="#5586e7"/>
      <stop offset=".57" stop-color="#1e9cd7"/>
      <stop offset=".99" stop-color="#2a32ff"/>
    </linearGradient>
    <linearGradient id="linear-gradient-2" x1="121.62" y1="139.13" x2="113.58" y2="153.07" xlink:href="#linear-gradient"/>
    <linearGradient id="linear-gradient-3" x1="140.16" y1="58.72" x2="99.04" y2="129.94" xlink:href="#linear-gradient"/>
    <linearGradient id="linear-gradient-4" x1="86.16" y1="116.06" x2="72.17" y2="140.29" xlink:href="#linear-gradient"/>
    <linearGradient id="linear-gradient-5" x1="124.5" y1="47.16" x2="72.18" y2="137.77" xlink:href="#linear-gradient"/>
    <linearGradient id="linear-gradient-6" x1="113.42" y1="131.44" x2="105.38" y2="145.37" xlink:href="#linear-gradient"/>
    <linearGradient id="linear-gradient-7" x1="105.59" y1="124.36" x2="97.54" y2="138.3" xlink:href="#linear-gradient"/>
    <linearGradient id="linear-gradient-8" x1="107.11" y1="36.6" x2="65.9" y2="107.98" xlink:href="#linear-gradient"/>
    <linearGradient id="linear-gradient-9" x1="53.59" y1="92.78" x2="38.98" y2="118.09" xlink:href="#linear-gradient"/>
    <linearGradient id="linear-gradient-10" x1="99.05" y1="28.99" x2="57.93" y2="100.21" xlink:href="#linear-gradient"/>
    <linearGradient id="linear-gradient-11" x1="45.05" y1="86.32" x2="31.06" y2="110.55" xlink:href="#linear-gradient"/>
    <linearGradient id="linear-gradient-12" x1="68.96" y1="9.08" x2="16.64" y2="99.7" xlink:href="#linear-gradient"/>
    <linearGradient id="linear-gradient-13" x1="72.31" y1="101.7" x2="64.26" y2="115.64" xlink:href="#linear-gradient"/>
    <linearGradient id="linear-gradient-14" x1="64.47" y1="94.62" x2="56.43" y2="108.56" xlink:href="#linear-gradient"/>
    <linearGradient id="linear-gradient-15" x1="80.51" y1="109.39" x2="72.46" y2="123.33" xlink:href="#linear-gradient"/>
    <linearGradient id="linear-gradient-16" x1="86.16" y1="116.06" x2="72.17" y2="140.29" xlink:href="#linear-gradient"/>
    <linearGradient id="linear-gradient-17" x1="105.59" y1="124.36" x2="97.54" y2="138.3" xlink:href="#linear-gradient"/>
  </defs>
  <g>
    <path class="cls-18" d="M134.68,63.2h-3.65v69.4c0,2.51-2.04,4.54-4.54,4.54h-17.85v6.31l-2.52-2.5-2.52,2.5v-6.31h-31.55v7.69h39.39v-7.67h5.04v7.67h18.21c2.51,0,4.54-2.04,4.54-4.54V67.75c0-2.51-2.04-4.54-4.54-4.54Zm-56.17,51.93v13.36l2.52-2.5,2.52,2.5v-13.36h-5.04Zm29.3-50.04h-9.7v3.02h9.7c.45,0,.82-.37,.82-.82v-1.38c0-.45-.37-.82-.82-.82Zm0,6.55h-9.7v3.02h9.7c.45,0,.82-.37,.82-.82v-1.38c0-.45-.37-.82-.82-.82Z"/>
    <polygon class="cls-18" points="119.63 158.23 122.14 155.74 124.66 158.23 124.66 144.87 119.63 144.87 119.63 158.23"/>
    <path class="cls-18" d="M131.02,60.05v72.55c0,2.51-2.04,4.54-4.54,4.54h-17.85v-7.05h10.01c2.51,0,4.54-2.04,4.54-4.54V55.51h3.29c2.51,0,4.54,2.04,4.54,4.54Z"/>
    <polygon class="cls-18" points="83.55 115.13 83.55 128.49 81.03 125.99 78.51 128.49 78.51 115.13 83.55 115.13"/>
    <rect class="cls-18" x="63.84" y="130.1" width="39.75" height="7.05"/>
    <path class="cls-18" d="M108.63,65.91v1.38c0,.45-.37,.82-.82,.82h-9.7v-3.02h9.7c.45,0,.82,.37,.82,.82Z"/>
    <path class="cls-18" d="M108.63,72.46v1.38c0,.45-.37,.82-.82,.82h-9.7v-3.02h9.7c.45,0,.82,.37,.82,.82Z"/>
    <polygon class="cls-18" points="83.55 115.13 83.55 128.49 81.03 125.99 78.51 128.49 78.51 115.13 83.55 115.13"/>
    <path class="cls-18" d="M118.64,48.46h-20.53v16.63h9.7c.45,0,.82,.37,.82,.82v1.38c0,.45-.37,.82-.82,.82h-9.7v3.53h9.7c.45,0,.82,.37,.82,.82v1.38c0,.45-.37,.82-.82,.82h-9.7v35.89c0,2.51-2.04,4.54-4.54,4.54h-18.21v5.7l-2.52-2.5-.8,.79-1.72,1.71v-5.7h-14.31v15h62.64c2.51,0,4.54-2.04,4.54-4.54V53.01c0-2.51-2.04-4.54-4.54-4.54Zm-35.09,80.03l-2.52-2.5-2.52,2.5v-13.36h5.04v13.36Z"/>
    <path class="cls-18" d="M108.63,65.91v1.38c0,.45-.37,.82-.82,.82h-9.7v-3.02h9.7c.45,0,.82,.37,.82,.82Z"/>
    <path class="cls-18" d="M108.63,72.46v1.38c0,.45-.37,.82-.82,.82h-9.7v-3.02h9.7c.45,0,.82,.37,.82,.82Z"/>
    <path class="cls-18" d="M108.63,65.91v1.38c0,.45-.37,.82-.82,.82h-9.7v-3.02h9.7c.45,0,.82,.37,.82,.82Z"/>
    <path class="cls-18" d="M108.63,72.46v1.38c0,.45-.37,.82-.82,.82h-9.7v-3.02h9.7c.45,0,.82,.37,.82,.82Z"/>
    <polygon class="cls-18" points="116.47 137.18 116.47 150.54 113.95 148.04 111.43 150.54 111.43 137.18 116.47 137.18"/>
    <polygon class="cls-18" points="108.63 130.1 108.63 143.47 106.11 140.97 103.59 143.47 103.59 130.1 108.63 130.1"/>
    <path class="cls-18" d="M67.51,36.17v1.38c0,.45-.37,.82-.82,.82H30.92v-3.03h35.77c.45,0,.82,.37,.82,.82Z"/>
    <path class="cls-18" d="M67.51,42.72v1.38c0,.45-.37,.82-.82,.82H30.92v-3.02h35.77c.45,0,.82,.37,.82,.82Z"/>
    <path class="cls-18" d="M98.1,38.01V110.56c0,2.51-2.04,4.54-4.54,4.54h-18.21v-7.66h-3.31v-.03h13.33c2.51,0,4.54-2.04,4.54-4.54V33.46h3.65c2.51,0,4.54,2.04,4.54,4.54Z"/>
    <polygon class="cls-18" points="72.04 107.42 72.04 107.44 70.31 107.44 70.31 115.11 30.92 115.11 30.92 107.42 62.47 107.42 62.47 113.72 63.84 112.37 64.99 111.22 67.51 113.72 67.51 107.42 72.04 107.42"/>
    <polygon class="cls-18" points="83.55 115.13 83.55 128.49 81.03 125.99 78.51 128.49 78.51 115.13 83.55 115.13"/>
    <rect class="cls-18" x="29.44" y="35.35" width="38.07" height="3.03" rx=".82" ry=".82"/>
    <rect class="cls-18" x="29.44" y="41.9" width="38.07" height="3.02" rx=".82" ry=".82"/>
    <path class="cls-18" d="M89.91,30.32V102.87c0,2.51-2.04,4.54-4.54,4.54h-17.85v-7.05h10.01c2.51,0,4.54-2.04,4.54-4.54V25.77h3.29c2.51,0,4.54,2.03,4.54,4.54Z"/>
    <rect class="cls-18" x="22.72" y="100.36" width="39.75" height="7.05"/>
    <path class="cls-18" d="M77.53,18.72H14.88V100.36h62.64c2.51,0,4.54-2.04,4.54-4.54V23.26c0-2.51-2.04-4.54-4.54-4.54Zm-10.01,25.38c0,.45-.37,.82-.82,.82H30.26c-.45,0-.82-.37-.82-.82v-1.38c0-.45,.37-.82,.82-.82h36.43c.45,0,.82,.37,.82,.82v1.38Zm0-6.55c0,.45-.37,.82-.82,.82H30.26c-.45,0-.82-.37-.82-.82v-1.38c0-.45,.37-.82,.82-.82h36.43c.45,0,.82,.37,.82,.82v1.38Z"/>
    <rect class="cls-18" x="29.44" y="35.35" width="38.07" height="3.03" rx=".82" ry=".82"/>
    <rect class="cls-18" x="29.44" y="41.9" width="38.07" height="3.02" rx=".82" ry=".82"/>
    <rect class="cls-18" x="29.44" y="35.35" width="38.07" height="3.03" rx=".82" ry=".82"/>
    <rect class="cls-18" x="29.44" y="41.9" width="38.07" height="3.02" rx=".82" ry=".82"/>
    <polygon class="cls-18" points="75.35 107.44 75.35 120.8 72.83 118.31 72.04 119.1 70.31 120.8 70.31 107.44 75.35 107.44"/>
    <polygon class="cls-18" points="67.51 100.36 67.51 113.72 64.99 111.22 63.84 112.37 62.47 113.72 62.47 100.36 67.51 100.36"/>
  </g>
  <path class="cls-5" d="M130.13,57.75h-3.65V127.15c0,2.51-2.04,4.54-4.54,4.54h-17.85v6.31l-2.52-2.5-2.52,2.5v-6.31h-31.55v7.69h39.39v-7.67h5.04v7.67h18.21c2.51,0,4.54-2.04,4.54-4.54V62.29c0-2.51-2.04-4.54-4.54-4.54Zm-56.17,51.93v13.36l2.52-2.5,2.52,2.5v-13.36h-5.04Zm29.3-50.04h-9.7v3.02h9.7c.45,0,.82-.37,.82-.82v-1.38c0-.45-.37-.82-.82-.82Zm0,6.55h-9.7v3.02h9.7c.45,0,.82-.37,.82-.82v-1.38c0-.45-.37-.82-.82-.82Z"/>
  <polygon class="cls-6" points="115.08 152.78 117.6 150.28 120.12 152.78 120.12 139.42 115.08 139.42 115.08 152.78"/>
  <path class="cls-15" d="M126.48,54.6V127.15c0,2.51-2.04,4.54-4.54,4.54h-17.85v-7.05h10.01c2.51,0,4.54-2.04,4.54-4.54V50.06h3.29c2.51,0,4.54,2.04,4.54,4.54Z"/>
  <rect class="cls-9" x="59.29" y="124.65" width="39.75" height="7.05"/>
  <path class="cls-4" d="M114.09,43.01h-20.53v16.63h9.7c.45,0,.82,.37,.82,.82v1.38c0,.45-.37,.82-.82,.82h-9.7v3.53h9.7c.45,0,.82,.37,.82,.82v1.38c0,.45-.37,.82-.82,.82h-9.7v35.89c0,2.51-2.04,4.54-4.54,4.54h-18.21v5.7l-2.52-2.5-.8,.79-1.72,1.71v-5.7h-14.31v15h62.64c2.51,0,4.54-2.04,4.54-4.54V47.55c0-2.51-2.04-4.54-4.54-4.54Zm-35.09,80.03l-2.52-2.5-2.52,2.5v-13.36h5.04v13.36Z"/>
  <polygon class="cls-10" points="111.92 131.73 111.92 145.09 109.4 142.59 106.88 145.09 106.88 131.73 111.92 131.73"/>
  <polygon class="cls-12" points="104.08 124.65 104.08 138.01 101.56 135.51 99.05 138.01 99.05 124.65 104.08 124.65"/>
  <path class="cls-17" d="M93.56,32.55V105.11c0,2.51-2.04,4.54-4.54,4.54h-18.21v-7.66h-3.31v-.03h13.33c2.51,0,4.54-2.04,4.54-4.54V28.01h3.65c2.51,0,4.54,2.04,4.54,4.54Z"/>
  <polygon class="cls-3" points="67.49 101.96 67.49 101.99 65.77 101.99 65.77 109.65 26.37 109.65 26.37 101.96 57.93 101.96 57.93 108.27 59.29 106.92 60.45 105.77 62.97 108.27 62.97 101.96 67.49 101.96"/>
  <path class="cls-11" d="M85.36,24.86V97.42c0,2.51-2.04,4.54-4.54,4.54h-17.85v-7.05h10.01c2.51,0,4.54-2.04,4.54-4.54V20.32h3.29c2.51,0,4.54,2.03,4.54,4.54Z"/>
  <rect class="cls-13" x="18.18" y="94.91" width="39.75" height="7.05"/>
  <path class="cls-2" d="M72.98,13.27H10.34V94.91h62.64c2.51,0,4.54-2.04,4.54-4.54V17.81c0-2.51-2.04-4.54-4.54-4.54Zm-10.01,25.38c0,.45-.37,.82-.82,.82H25.72c-.45,0-.82-.37-.82-.82v-1.38c0-.45,.37-.82,.82-.82H62.15c.45,0,.82,.37,.82,.82v1.38Zm0-6.55c0,.45-.37,.82-.82,.82H25.72c-.45,0-.82-.37-.82-.82v-1.38c0-.45,.37-.82,.82-.82H62.15c.45,0,.82,.37,.82,.82v1.38Z"/>
  <polygon class="cls-16" points="70.8 101.99 70.8 115.35 68.29 112.85 67.49 113.64 65.77 115.35 65.77 101.99 70.8 101.99"/>
  <polygon class="cls-7" points="62.97 94.91 62.97 108.27 60.45 105.77 59.29 106.92 57.93 108.27 57.93 94.91 62.97 94.91"/>
  <path class="cls-19" d="M15.2,1.75l.91,5.37c.08,.49,.4,.9,.84,1.11l4.94,2.29c1.12,.52,1.16,2.11,.06,2.68l-4.83,2.53c-.44,.23-.73,.66-.79,1.15l-.65,5.41c-.15,1.23-1.64,1.76-2.53,.89l-3.9-3.81c-.35-.34-.85-.49-1.33-.4l-5.35,1.05c-1.22,.24-2.18-1.02-1.63-2.13l2.42-4.88c.22-.44,.21-.96-.03-1.39L.69,6.85c-.6-1.08,.3-2.39,1.52-2.21l5.39,.79c.49,.07,.98-.1,1.31-.46L12.63,.98c.84-.91,2.36-.45,2.57,.77Z"/>
  <polygon class="cls-14" points="79 109.68 79 123.04 76.49 120.54 73.96 123.04 73.96 109.68 79 109.68"/>
  <path class="cls-5" d="M130.13,57.75h-3.65V127.15c0,2.51-2.04,4.54-4.54,4.54h-17.85v6.31l-2.52-2.5-2.52,2.5v-6.31h-31.55v7.69h39.39v-7.67h5.04v7.67h18.21c2.51,0,4.54-2.04,4.54-4.54V62.29c0-2.51-2.04-4.54-4.54-4.54Zm-56.17,51.93v13.36l2.52-2.5,2.52,2.5v-13.36h-5.04Zm29.3-50.04h-9.7v3.02h9.7c.45,0,.82-.37,.82-.82v-1.38c0-.45-.37-.82-.82-.82Zm0,6.55h-9.7v3.02h9.7c.45,0,.82-.37,.82-.82v-1.38c0-.45-.37-.82-.82-.82Z"/>
  <rect class="cls-8" x="59.29" y="124.65" width="39.75" height="7.05"/>
  <polygon class="cls-1" points="104.08 124.65 104.08 138.01 101.56 135.51 99.05 138.01 99.05 124.65 104.08 124.65"/>
  <path class="cls-19" d="M78.37,104.29l.46,2.72c.04,.25,.2,.46,.43,.56l2.51,1.16c.57,.26,.59,1.07,.03,1.36l-2.45,1.28c-.22,.12-.37,.33-.4,.58l-.33,2.74c-.08,.62-.83,.89-1.28,.45l-1.98-1.93c-.18-.17-.43-.25-.68-.2l-2.71,.53c-.62,.12-1.1-.52-.83-1.08l1.23-2.48c.11-.22,.1-.49-.02-.71l-1.34-2.41c-.31-.55,.15-1.21,.77-1.12l2.73,.4c.25,.04,.5-.05,.67-.23l1.88-2.02c.43-.46,1.2-.23,1.3,.39Z"/>
  <path class="cls-19" d="M53.33,111.64l5.1,3.72c.46,.34,1.06,.42,1.59,.23l5.95-2.09c1.35-.48,2.66,.81,2.22,2.17l-1.96,5.99c-.18,.54-.08,1.14,.27,1.59l3.83,5.01c.87,1.14,.06,2.78-1.38,2.78h-6.31c-.57-.01-1.1,.27-1.43,.74l-3.58,5.19c-.82,1.18-2.63,.91-3.07-.45l-1.94-6c-.18-.54-.61-.96-1.15-1.13l-6.04-1.8c-1.37-.41-1.68-2.22-.52-3.06l5.11-3.7c.46-.33,.73-.87,.72-1.44l-.15-6.3c-.03-1.43,1.59-2.28,2.75-1.44Z"/>
</svg>