<?xml version="1.0" encoding="UTF-8"?>
<svg id="Layer_1" data-name="Layer 1" xmlns="http://www.w3.org/2000/svg" xmlns:xlink="http://www.w3.org/1999/xlink" viewBox="0 0 169.06 136.29">
  <defs>
    <style>
      .cls-1 {
        stroke: url(#linear-gradient);
      }

      .cls-1, .cls-2, .cls-3, .cls-4 {
        fill: none;
        stroke-linejoin: round;
        stroke-width: 2px;
      }

      .cls-2 {
        stroke: url(#linear-gradient-2);
      }

      .cls-3 {
        stroke: url(#linear-gradient-4);
      }

      .cls-5 {
        fill: #ffd1da;
      }

      .cls-6 {
        fill: #fdffa3;
        stroke: #fbb03b;
        stroke-miterlimit: 10;
      }

      .cls-4 {
        stroke: url(#linear-gradient-3);
      }
    </style>
    <linearGradient id="linear-gradient" x1="36.3" y1="85.99" x2="125.9" y2="-3.6" gradientUnits="userSpaceOnUse">
      <stop offset="0" stop-color="#ff6acd"/>
      <stop offset=".54" stop-color="#c72c58"/>
      <stop offset="1" stop-color="#bf0005"/>
    </linearGradient>
    <linearGradient id="linear-gradient-2" x1="67.85" y1="78.94" x2="94.08" y2="52.72" xlink:href="#linear-gradient"/>
    <linearGradient id="linear-gradient-3" x1="41.86" y1="100.89" x2="124.44" y2="18.3" xlink:href="#linear-gradient"/>
    <linearGradient id="linear-gradient-4" x1="40.48" y1="111.95" x2="123.06" y2="29.37" xlink:href="#linear-gradient"/>
  </defs>
  <g>
    <path class="cls-5" d="M85.25,43.13c-59.15-60.62-108.76-19,0,93.16,108.76-112.16,59.15-153.77,0-93.16Z"/>
    <polygon class="cls-5" points="103.83 66.65 103.83 78.84 91.21 78.84 91.21 91.46 79.02 91.46 79.02 78.84 66.4 78.84 66.4 66.65 79.02 66.65 79.02 54.03 91.21 54.03 91.21 66.65 103.83 66.65"/>
    <polyline class="cls-5" points="5.54 66.33 37.42 66.68 48.66 29.94 65.01 95.76 74.86 66.68 99.77 66.68 106.9 33.96 117.68 95.76 125.07 66.68 169.06 66.68"/>
    <polyline class="cls-5" points="4.16 77.39 36.04 77.74 47.28 41.01 63.63 106.82 73.48 77.74 98.39 77.74 105.52 45.02 116.3 106.82 123.69 77.74 167.67 77.74"/>
  </g>
  <g>
    <path class="cls-1" d="M81.1,36.22c-59.15-60.62-108.76-19,0,93.16,108.76-112.16,59.15-153.77,0-93.16Z"/>
    <polygon class="cls-2" points="99.68 59.73 99.68 71.92 87.06 71.92 87.06 84.54 74.87 84.54 74.87 71.92 62.25 71.92 62.25 59.73 74.87 59.73 74.87 47.11 87.06 47.11 87.06 59.73 99.68 59.73"/>
    <polyline class="cls-4" points="1.39 59.41 33.28 59.77 44.51 23.03 60.86 88.84 70.71 59.77 95.62 59.77 102.75 27.04 113.53 88.84 120.92 59.77 164.91 59.77"/>
    <polyline class="cls-3" points=".01 70.47 31.89 70.83 43.13 34.09 59.48 99.91 69.33 70.83 94.24 70.83 101.37 38.11 112.15 99.91 119.54 70.83 163.52 70.83"/>
  </g>
  <path class="cls-6" d="M102.43,95l5.47,5.63c.49,.51,1.21,.74,1.91,.62l7.74-1.32c1.76-.3,3.1,1.55,2.27,3.13l-3.66,6.94c-.33,.63-.33,1.38,0,2.01l3.64,6.95c.83,1.58-.52,3.43-2.28,3.12l-7.73-1.34c-.7-.12-1.41,.11-1.91,.62l-5.49,5.61c-1.25,1.28-3.42,.57-3.67-1.2l-1.12-7.77c-.1-.7-.54-1.31-1.18-1.62l-7.03-3.48c-1.6-.79-1.6-3.08,0-3.86l7.04-3.46c.64-.31,1.08-.92,1.18-1.62l1.14-7.77c.26-1.77,2.43-2.47,3.68-1.19Z"/>
  <path class="cls-6" d="M130.41,73.93l1.46,5.25c.13,.47,.49,.85,.95,1.01l5.15,1.77c1.17,.4,1.37,1.97,.34,2.66l-4.54,3.01c-.41,.27-.66,.73-.67,1.22l-.09,5.44c-.02,1.24-1.45,1.92-2.42,1.15l-4.26-3.38c-.39-.31-.9-.4-1.37-.26l-5.21,1.59c-1.18,.36-2.27-.79-1.84-1.95l1.9-5.1c.17-.46,.11-.98-.18-1.38l-3.13-4.46c-.71-1.01,.05-2.4,1.29-2.35l5.44,.23c.49,.02,.96-.2,1.26-.59l3.27-4.35c.74-.99,2.3-.7,2.63,.5Z"/>
  <path class="cls-6" d="M34.03,1.43l1.24,4.44c.11,.4,.41,.72,.81,.86l4.35,1.5c.99,.34,1.16,1.67,.29,2.25l-3.84,2.55c-.35,.23-.56,.62-.56,1.03l-.08,4.6c-.02,1.05-1.23,1.62-2.05,.97l-3.61-2.86c-.33-.26-.76-.34-1.16-.22l-4.4,1.35c-1,.31-1.92-.67-1.55-1.65l1.61-4.31c.15-.39,.09-.83-.15-1.17l-2.64-3.77c-.6-.86,.04-2.03,1.09-1.99l4.6,.2c.42,.02,.81-.17,1.06-.5l2.77-3.68c.63-.84,1.95-.59,2.23,.42Z"/>
</svg>