<?xml version="1.0" encoding="UTF-8"?>
<svg id="Layer_2" data-name="Layer 2" xmlns="http://www.w3.org/2000/svg" viewBox="0 0 169.06 136.29">
  <defs>
    <style>
      .cls-1 {
        fill: none;
        stroke: #b3b3b3;
        stroke-linejoin: round;
        stroke-width: 2px;
      }
    </style>
  </defs>
  <path class="cls-1" d="M81.1,36.22c-59.15-60.62-108.76-19,0,93.16,108.76-112.16,59.15-153.77,0-93.16Z"/>
  <polygon class="cls-1" points="99.68 59.73 99.68 71.92 87.06 71.92 87.06 84.54 74.87 84.54 74.87 71.92 62.25 71.92 62.25 59.73 74.87 59.73 74.87 47.11 87.06 47.11 87.06 59.73 99.68 59.73"/>
  <polyline class="cls-1" points="1.39 59.41 33.28 59.77 44.51 23.03 60.86 88.84 70.71 59.77 95.62 59.77 102.75 27.04 113.53 88.84 120.92 59.77 164.91 59.77"/>
  <polyline class="cls-1" points=".01 70.47 31.89 70.83 43.13 34.09 59.48 99.91 69.33 70.83 94.24 70.83 101.37 38.11 112.15 99.91 119.54 70.83 163.52 70.83"/>
</svg>