<?xml version="1.0" encoding="UTF-8"?>
<svg id="Layer_2" data-name="Layer 2" xmlns="http://www.w3.org/2000/svg" viewBox="0 0 193.88 156.23">
  <defs>
    <style>
      .cls-1 {
        fill: none;
        stroke: #b3b3b3;
        stroke-linejoin: round;
        stroke-width: 2px;
      }
    </style>
  </defs>
  <path class="cls-1" d="M93.01,41.46c-67.84-69.52-124.73-21.79,0,106.84,124.73-128.63,67.84-176.36,0-106.84Z"/>
  <polygon class="cls-1" points="114.32 68.43 114.32 82.41 99.84 82.41 99.84 96.89 85.87 96.89 85.87 82.41 71.39 82.41 71.39 68.43 85.87 68.43 85.87 53.96 99.84 53.96 99.84 68.43 114.32 68.43"/>
  <polyline class="cls-1" points="1.6 68.06 38.16 68.47 51.05 26.34 69.8 101.82 81.1 68.47 109.67 68.47 117.84 30.94 130.2 101.82 138.68 68.47 189.13 68.47"/>
  <polyline class="cls-1" points=".01 80.75 36.57 81.16 49.46 39.03 68.21 114.51 79.51 81.16 108.08 81.16 116.26 43.63 128.62 114.51 137.1 81.16 187.54 81.16"/>
</svg>