<?xml version="1.0" encoding="UTF-8"?>
<svg id="Layer_1" data-name="Layer 1" xmlns="http://www.w3.org/2000/svg" xmlns:xlink="http://www.w3.org/1999/xlink" viewBox="0 0 193.88 156.23">
  <defs>
    <style>
      .cls-1 {
        stroke: url(#linear-gradient);
      }

      .cls-1, .cls-2, .cls-3, .cls-4 {
        fill: none;
        stroke-linejoin: round;
        stroke-width: 2px;
      }

      .cls-2 {
        stroke: url(#linear-gradient-2);
      }

      .cls-3 {
        stroke: url(#linear-gradient-4);
      }

      .cls-5 {
        fill: #ffd1da;
      }

      .cls-6 {
        fill: #fdffa3;
        stroke: #fbb03b;
        stroke-miterlimit: 10;
      }

      .cls-4 {
        stroke: url(#linear-gradient-3);
      }
    </style>
    <linearGradient id="linear-gradient" x1="41.74" y1="98.44" x2="144.28" y2="-4.1" gradientUnits="userSpaceOnUse">
      <stop offset="0" stop-color="#ff6acd"/>
      <stop offset=".54" stop-color="#c72c58"/>
      <stop offset="1" stop-color="#bf0005"/>
    </linearGradient>
    <linearGradient id="linear-gradient-2" x1="77.92" y1="90.36" x2="107.79" y2="60.49" xlink:href="#linear-gradient"/>
    <linearGradient id="linear-gradient-3" x1="48.08" y1="115.56" x2="142.64" y2="20.99" xlink:href="#linear-gradient"/>
    <linearGradient id="linear-gradient-4" x1="46.49" y1="128.24" x2="141.06" y2="33.68" xlink:href="#linear-gradient"/>
  </defs>
  <g>
    <path class="cls-5" d="M97.77,49.39c-67.84-69.52-124.73-21.79,0,106.84,124.73-128.63,67.84-176.36,0-106.84Z"/>
    <polygon class="cls-5" points="119.08 76.36 119.08 90.34 104.6 90.34 104.6 104.82 90.62 104.82 90.62 90.34 76.15 90.34 76.15 76.36 90.62 76.36 90.62 61.89 104.6 61.89 104.6 76.36 119.08 76.36"/>
    <polyline class="cls-5" points="6.36 75.99 42.92 76.4 55.81 34.27 74.56 109.75 85.86 76.4 114.43 76.4 122.6 38.87 134.96 109.75 143.44 76.4 193.88 76.4"/>
    <polyline class="cls-5" points="4.77 88.68 41.33 89.09 54.22 46.96 72.97 122.44 84.27 89.09 112.84 89.09 121.01 51.56 133.37 122.44 141.86 89.09 192.3 89.09"/>
  </g>
  <g>
    <path class="cls-1" d="M93.01,41.46c-67.84-69.52-124.73-21.79,0,106.84,124.73-128.63,67.84-176.36,0-106.84Z"/>
    <polygon class="cls-2" points="114.32 68.43 114.32 82.41 99.84 82.41 99.84 96.89 85.87 96.89 85.87 82.41 71.39 82.41 71.39 68.43 85.87 68.43 85.87 53.96 99.84 53.96 99.84 68.43 114.32 68.43"/>
    <polyline class="cls-4" points="1.6 68.06 38.16 68.47 51.05 26.34 69.8 101.82 81.1 68.47 109.67 68.47 117.84 30.94 130.2 101.82 138.68 68.47 189.13 68.47"/>
    <polyline class="cls-3" points=".01 80.75 36.57 81.16 49.46 39.03 68.21 114.51 79.51 81.16 108.08 81.16 116.26 43.63 128.62 114.51 137.1 81.16 187.54 81.16"/>
  </g>
  <path class="cls-6" d="M117.47,108.87l6.27,6.46c.57,.58,1.38,.85,2.19,.71l8.88-1.51c2.02-.34,3.55,1.78,2.6,3.59l-4.2,7.96c-.38,.72-.38,1.58,0,2.3l4.18,7.97c.95,1.81-.59,3.93-2.61,3.58l-8.87-1.54c-.8-.14-1.62,.13-2.19,.71l-6.29,6.44c-1.43,1.46-3.92,.65-4.21-1.38l-1.28-8.91c-.12-.8-.62-1.5-1.35-1.86l-8.07-4c-1.84-.91-1.83-3.53,0-4.43l8.08-3.97c.73-.36,1.24-1.05,1.35-1.86l1.31-8.91c.3-2.03,2.79-2.83,4.22-1.36Z"/>
  <path class="cls-6" d="M149.56,84.72l1.68,6.02c.15,.54,.56,.98,1.09,1.16l5.91,2.03c1.34,.46,1.57,2.26,.39,3.05l-5.2,3.45c-.47,.31-.76,.83-.77,1.4l-.11,6.24c-.02,1.42-1.67,2.2-2.78,1.31l-4.89-3.88c-.44-.35-1.03-.46-1.57-.3l-5.97,1.83c-1.36,.42-2.6-.91-2.11-2.24l2.18-5.85c.2-.53,.12-1.12-.2-1.58l-3.58-5.11c-.82-1.16,.06-2.76,1.48-2.7l6.24,.27c.56,.02,1.1-.23,1.44-.68l3.76-4.99c.85-1.13,2.64-.8,3.02,.57Z"/>
  <path class="cls-6" d="M39.03,1.56l1.42,5.09c.13,.46,.47,.83,.92,.98l4.99,1.72c1.14,.39,1.33,1.91,.33,2.58l-4.4,2.92c-.4,.26-.64,.71-.65,1.18l-.09,5.28c-.02,1.2-1.41,1.86-2.35,1.11l-4.14-3.28c-.37-.3-.87-.39-1.33-.25l-5.05,1.55c-1.15,.35-2.2-.77-1.78-1.89l1.84-4.95c.17-.45,.1-.95-.17-1.34l-3.03-4.32c-.69-.98,.05-2.33,1.25-2.28l5.28,.22c.48,.02,.93-.2,1.22-.58l3.18-4.22c.72-.96,2.23-.67,2.55,.48Z"/>
</svg>