<?xml version="1.0" encoding="UTF-8"?>
<svg id="Layer_2" data-name="Layer 2" xmlns="http://www.w3.org/2000/svg" viewBox="0 0 150.32 152.03">
  <defs>
    <style>
      .cls-1 {
        fill: none;
        stroke: #b3b3b3;
        stroke-linejoin: round;
        stroke-width: 2px;
      }
    </style>
  </defs>
  <polygon class="cls-1" points="144.72 57.72 124.91 57.72 124.91 143.83 20.55 143.83 20.55 57.72 1 57.72 72.85 5.94 144.72 57.72"/>
  <rect class="cls-1" x="34.37" y="62.88" width="30.47" height="33.89"/>
  <rect class="cls-1" x="85.99" y="104.88" width="20" height="39.05"/>
  <rect class="cls-1" x="29.81" y="60.29" width="40.08" height="6.89"/>
  <rect class="cls-1" x="80.16" y="62.76" width="30.47" height="33.89"/>
  <rect class="cls-1" x="75.6" y="60.17" width="40.08" height="6.89"/>
  <rect class="cls-1" x="34.37" y="105.94" width="30.47" height="33.89"/>
  <rect class="cls-1" x="29.81" y="103.35" width="40.08" height="6.89"/>
  <polygon class="cls-1" points="72.85 5.94 1 57.72 144.72 57.72 72.85 5.94"/>
  <polygon class="cls-1" points="72.85 1 1 52.78 144.72 52.78 72.85 1"/>
</svg>