<?xml version="1.0" encoding="UTF-8"?>
<svg id="Layer_1" data-name="Layer 1" xmlns="http://www.w3.org/2000/svg" xmlns:xlink="http://www.w3.org/1999/xlink" viewBox="0 0 159 152.68">
  <defs>
    <style>
      .cls-1, .cls-2 {
        fill: #fff;
      }

      .cls-3 {
        stroke: url(#linear-gradient-10);
      }

      .cls-3, .cls-4, .cls-5, .cls-6, .cls-7, .cls-8, .cls-9, .cls-10, .cls-11, .cls-12, .cls-13, .cls-14, .cls-15, .cls-16, .cls-17, .cls-18 {
        fill: none;
      }

      .cls-3, .cls-4, .cls-5, .cls-6, .cls-7, .cls-8, .cls-9, .cls-10, .cls-11, .cls-12, .cls-13, .cls-15, .cls-16, .cls-17, .cls-18, .cls-2 {
        stroke-width: 2px;
      }

      .cls-3, .cls-4, .cls-5, .cls-7, .cls-8, .cls-9, .cls-10, .cls-11, .cls-12, .cls-13, .cls-19, .cls-15, .cls-16, .cls-17, .cls-18 {
        stroke-miterlimit: 10;
      }

      .cls-4 {
        stroke: url(#linear-gradient-13);
      }

      .cls-5 {
        stroke: url(#linear-gradient-4);
      }

      .cls-6 {
        stroke: url(#linear-gradient-2);
      }

      .cls-6, .cls-2 {
        stroke-linejoin: round;
      }

      .cls-7 {
        stroke: url(#linear-gradient-3);
      }

      .cls-20 {
        fill: #e9c9ff;
      }

      .cls-8 {
        stroke: url(#linear-gradient-14);
      }

      .cls-9 {
        stroke: url(#linear-gradient-9);
      }

      .cls-10 {
        stroke: url(#linear-gradient);
      }

      .cls-11 {
        stroke: url(#linear-gradient-11);
      }

      .cls-12 {
        stroke: url(#linear-gradient-15);
      }

      .cls-13 {
        stroke: url(#linear-gradient-16);
      }

      .cls-19 {
        fill: #fdffa3;
        stroke: #fbb03b;
      }

      .cls-15 {
        stroke: url(#linear-gradient-12);
      }

      .cls-16 {
        stroke: url(#linear-gradient-5);
      }

      .cls-17 {
        stroke: url(#linear-gradient-8);
      }

      .cls-18 {
        stroke: url(#linear-gradient-6);
      }

      .cls-2 {
        stroke: url(#linear-gradient-7);
      }
    </style>
    <linearGradient id="linear-gradient" x1="4.98" y1="35.52" x2="146.98" y2="35.52" gradientUnits="userSpaceOnUse">
      <stop offset="0" stop-color="#cb85ff"/>
      <stop offset=".12" stop-color="#c47bfb"/>
      <stop offset=".31" stop-color="#b362f2"/>
      <stop offset=".49" stop-color="#a046e9"/>
      <stop offset=".99" stop-color="#5a00a6"/>
    </linearGradient>
    <linearGradient id="linear-gradient-2" x1="54.49" y1="16.25" x2="96.9" y2="16.25" xlink:href="#linear-gradient"/>
    <linearGradient id="linear-gradient-3" x1="9.84" y1="92.88" x2="141.15" y2="92.88" xlink:href="#linear-gradient"/>
    <linearGradient id="linear-gradient-4" x1="29.28" y1="74.41" x2="39.06" y2="74.41" xlink:href="#linear-gradient"/>
    <linearGradient id="linear-gradient-5" x1="114.84" y1="74.41" x2="124.62" y2="74.41" xlink:href="#linear-gradient"/>
    <linearGradient id="linear-gradient-6" x1="63.31" y1="66.63" x2="90.59" y2="66.63" xlink:href="#linear-gradient"/>
    <linearGradient id="linear-gradient-7" x1="96.39" y1="111.5" x2="151.48" y2="111.5" xlink:href="#linear-gradient"/>
    <linearGradient id="linear-gradient-8" x1="105.49" y1="105.14" x2="142.51" y2="105.14" xlink:href="#linear-gradient"/>
    <linearGradient id="linear-gradient-9" x1="105.49" y1="99.35" x2="142.51" y2="99.35" xlink:href="#linear-gradient"/>
    <linearGradient id="linear-gradient-10" x1="105.49" y1="93.57" x2="142.51" y2="93.57" xlink:href="#linear-gradient"/>
    <linearGradient id="linear-gradient-11" x1="105.49" y1="87.78" x2="142.51" y2="87.78" xlink:href="#linear-gradient"/>
    <linearGradient id="linear-gradient-12" x1="105.49" y1="128.28" x2="142.51" y2="128.28" xlink:href="#linear-gradient"/>
    <linearGradient id="linear-gradient-13" x1="105.49" y1="122.49" x2="142.51" y2="122.49" xlink:href="#linear-gradient"/>
    <linearGradient id="linear-gradient-14" x1="105.49" y1="116.71" x2="142.51" y2="116.71" xlink:href="#linear-gradient"/>
    <linearGradient id="linear-gradient-15" x1="105.49" y1="110.92" x2="142.51" y2="110.92" xlink:href="#linear-gradient"/>
    <linearGradient id="linear-gradient-16" x1="96.39" y1="111.5" x2="151.48" y2="111.5" xlink:href="#linear-gradient"/>
  </defs>
  <path class="cls-20" d="M144.15,29.85h-15.53v-5.83h-7.78v5.83h-14.59c0-13.96-11.32-25.28-25.28-25.28s-25.28,11.32-25.28,25.28h-12.63v-5.83h-7.78v5.83H17.81c-3.77,0-6.83,3.07-6.83,6.84v30.08c0,3.09,2.05,5.7,4.86,6.55v49.17c0,2,1.63,3.63,3.63,3.63h15.81v5.83h7.78v-5.83h59.32v-42.02c0-3.66,2.97-6.62,6.62-6.62h36.15v-3.94c3.3-.49,5.84-3.33,5.84-6.77v-30.08c0-3.77-3.07-6.84-6.84-6.84ZM80.7,9.8c11.11,0,20.12,8.95,20.2,20.05H60.49c.09-11.09,9.1-20.05,20.21-20.05Z"/>
  <path class="cls-14" d="M100.9,29.85H60.49c.09-11.09,9.1-20.05,20.21-20.05s20.12,8.95,20.2,20.05Z"/>
  <path class="cls-14" d="M100.9,29.85H60.49c.09-11.09,9.1-20.05,20.21-20.05s20.12,8.95,20.2,20.05Z"/>
  <path class="cls-14" d="M145.15,77.47v45.01c0,1.82-1.34,3.34-3.1,3.59-.17,.03-.35,.04-.53,.04h-39.13v-42.02c0-3.66,2.97-6.62,6.62-6.62h36.15Z"/>
  <rect class="cls-14" x="120.85" y="77.47" width="7.78" height="54.47"/>
  <rect class="cls-1" x="102.39" y="77.47" width="53.09" height="75.21" rx="6.62" ry="6.62"/>
  <path class="cls-10" d="M139.15,26.28h-37.89c0-13.96-11.32-25.28-25.28-25.28s-25.28,11.32-25.28,25.28H12.81c-3.77,0-6.84,3.06-6.84,6.83v30.08c0,3.77,3.06,6.84,6.84,6.84h126.34c3.77,0,6.84-3.06,6.84-6.84v-30.08c0-3.77-3.06-6.83-6.84-6.83ZM75.7,6.23c11.11,0,20.12,8.95,20.2,20.05H55.49c.09-11.09,9.1-20.05,20.21-20.05Z"/>
  <path class="cls-6" d="M95.9,26.28H55.49c.09-11.09,9.1-20.05,20.21-20.05s20.12,8.95,20.2,20.05Z"/>
  <rect class="cls-7" x="10.84" y="63.22" width="129.31" height="59.31" rx="5.08" ry="5.08"/>
  <rect class="cls-5" x="30.28" y="20.45" width="7.78" height="107.92"/>
  <rect class="cls-16" x="115.84" y="20.45" width="7.78" height="107.92"/>
  <rect class="cls-18" x="64.31" y="58.36" width="25.28" height="16.53"/>
  <rect class="cls-2" x="97.39" y="73.9" width="53.09" height="75.21" rx="9.26" ry="9.26"/>
  <rect class="cls-20" x="101.67" y="77.47" width="53.09" height="75.21" rx="9.26" ry="9.26"/>
  <line class="cls-17" x1="105.49" y1="105.14" x2="142.51" y2="105.14"/>
  <line class="cls-9" x1="105.49" y1="99.35" x2="142.51" y2="99.35"/>
  <line class="cls-3" x1="105.49" y1="93.57" x2="142.51" y2="93.57"/>
  <line class="cls-11" x1="105.49" y1="87.78" x2="142.51" y2="87.78"/>
  <line class="cls-15" x1="105.49" y1="128.28" x2="142.51" y2="128.28"/>
  <line class="cls-4" x1="105.49" y1="122.49" x2="142.51" y2="122.49"/>
  <line class="cls-8" x1="105.49" y1="116.71" x2="142.51" y2="116.71"/>
  <line class="cls-12" x1="105.49" y1="110.92" x2="142.51" y2="110.92"/>
  <rect class="cls-13" x="97.39" y="73.9" width="53.09" height="75.21" rx="9.26" ry="9.26"/>
  <path class="cls-19" d="M21.61,102.88l2.18,7.82c.2,.71,.73,1.27,1.42,1.51l7.67,2.64c1.75,.6,2.04,2.94,.51,3.96l-6.76,4.49c-.61,.41-.98,1.08-1,1.82l-.14,8.11c-.03,1.85-2.16,2.85-3.61,1.71l-6.35-5.04c-.57-.46-1.34-.6-2.04-.38l-7.76,2.38c-1.76,.54-3.38-1.18-2.74-2.91l2.83-7.6c.26-.69,.16-1.46-.26-2.06l-4.66-6.64c-1.06-1.51,.07-3.58,1.92-3.5l8.11,.35c.73,.03,1.43-.3,1.87-.89l4.88-6.48c1.11-1.47,3.43-1.04,3.92,.74Z"/>
  <path class="cls-19" d="M51.08,98.91l2.77,4.96c.25,.45,.7,.74,1.22,.79l5.66,.53c1.29,.12,1.88,1.66,1,2.61l-3.86,4.17c-.35,.38-.49,.9-.38,1.4l1.24,5.54c.28,1.26-1,2.3-2.18,1.76l-5.16-2.39c-.47-.22-1.01-.19-1.45,.07l-4.89,2.9c-1.11,.66-2.5-.24-2.34-1.53l.68-5.64c.06-.51-.13-1.02-.52-1.36l-4.26-3.75c-.97-.85-.54-2.45,.73-2.7l5.57-1.1c.5-.1,.93-.44,1.13-.91l2.25-5.22c.51-1.19,2.16-1.27,2.79-.14Z"/>
  <path class="cls-19" d="M143.95,19.62l4.26,3.06c.39,.28,.88,.35,1.33,.18l4.94-1.78c1.12-.4,2.22,.65,1.86,1.79l-1.59,5c-.14,.45-.06,.94,.23,1.32l3.22,4.14c.73,.94,.06,2.32-1.13,2.32l-5.25,.03c-.47,0-.92,.24-1.18,.63l-2.95,4.34c-.67,.99-2.18,.78-2.56-.36l-1.65-4.98c-.15-.45-.51-.8-.97-.93l-5.04-1.46c-1.15-.33-1.41-1.83-.45-2.54l4.23-3.11c.38-.28,.6-.73,.59-1.21l-.17-5.24c-.04-1.19,1.31-1.91,2.28-1.22Z"/>
</svg>