<?xml version="1.0" encoding="UTF-8"?>
<svg id="Layer_2" data-name="Layer 2" xmlns="http://www.w3.org/2000/svg" viewBox="0 0 159 152.68">
  <defs>
    <style>
      .cls-1 {
        fill: #fff;
        stroke-linejoin: round;
      }

      .cls-1, .cls-2 {
        stroke: #b3b3b3;
        stroke-width: 2px;
      }

      .cls-2 {
        fill: none;
        stroke-miterlimit: 10;
      }
    </style>
  </defs>
  <path class="cls-2" d="M139.15,26.28h-37.89c0-13.96-11.32-25.28-25.28-25.28s-25.28,11.32-25.28,25.28H12.81c-3.77,0-6.84,3.06-6.84,6.83v30.08c0,3.77,3.06,6.84,6.84,6.84h126.34c3.77,0,6.84-3.06,6.84-6.84v-30.08c0-3.77-3.06-6.83-6.84-6.83ZM75.7,6.23c11.11,0,20.12,8.95,20.2,20.05H55.49c.09-11.09,9.1-20.05,20.21-20.05Z"/>
  <rect class="cls-2" x="10.84" y="63.22" width="129.31" height="59.31" rx="5.08" ry="5.08"/>
  <rect class="cls-2" x="30.28" y="20.45" width="7.78" height="107.92"/>
  <rect class="cls-2" x="115.84" y="20.45" width="7.78" height="107.92"/>
  <rect class="cls-2" x="64.31" y="58.36" width="25.28" height="16.53"/>
  <line class="cls-2" x1="105.49" y1="105.14" x2="142.51" y2="105.14"/>
  <line class="cls-2" x1="105.49" y1="99.35" x2="142.51" y2="99.35"/>
  <line class="cls-2" x1="105.49" y1="93.57" x2="142.51" y2="93.57"/>
  <line class="cls-2" x1="105.49" y1="87.78" x2="142.51" y2="87.78"/>
  <line class="cls-2" x1="105.49" y1="128.28" x2="142.51" y2="128.28"/>
  <line class="cls-2" x1="105.49" y1="122.49" x2="142.51" y2="122.49"/>
  <line class="cls-2" x1="105.49" y1="116.71" x2="142.51" y2="116.71"/>
  <line class="cls-2" x1="105.49" y1="110.92" x2="142.51" y2="110.92"/>
  <rect class="cls-2" x="97.39" y="73.9" width="53.09" height="75.21" rx="9.26" ry="9.26"/>
  <rect class="cls-1" x="97.39" y="73.9" width="53.09" height="75.21" rx="9.26" ry="9.26"/>
  <line class="cls-2" x1="105.49" y1="105.14" x2="142.51" y2="105.14"/>
  <line class="cls-2" x1="105.49" y1="99.35" x2="142.51" y2="99.35"/>
  <line class="cls-2" x1="105.49" y1="93.57" x2="142.51" y2="93.57"/>
  <line class="cls-2" x1="105.49" y1="87.78" x2="142.51" y2="87.78"/>
  <line class="cls-2" x1="105.49" y1="128.28" x2="142.51" y2="128.28"/>
  <line class="cls-2" x1="105.49" y1="122.49" x2="142.51" y2="122.49"/>
  <line class="cls-2" x1="105.49" y1="116.71" x2="142.51" y2="116.71"/>
  <line class="cls-2" x1="105.49" y1="110.92" x2="142.51" y2="110.92"/>
</svg>