<?xml version="1.0" encoding="UTF-8"?>
<svg id="Layer_1" data-name="Layer 1" xmlns="http://www.w3.org/2000/svg" xmlns:xlink="http://www.w3.org/1999/xlink" viewBox="0 0 160 136.57">
  <defs>
    <style>
      .cls-1 {
        stroke: url(#linear-gradient-12);
      }

      .cls-1, .cls-2, .cls-3, .cls-4, .cls-5, .cls-6, .cls-7, .cls-8, .cls-9, .cls-10, .cls-11, .cls-12, .cls-13, .cls-14, .cls-15, .cls-16, .cls-17 {
        fill: none;
        stroke-linejoin: round;
        stroke-width: 2px;
      }

      .cls-2 {
        stroke: url(#linear-gradient-9);
      }

      .cls-3 {
        stroke: url(#linear-gradient-5);
      }

      .cls-4 {
        stroke: url(#linear-gradient);
      }

      .cls-5 {
        stroke: url(#linear-gradient-2);
      }

      .cls-6 {
        stroke: #5eb0a8;
      }

      .cls-7 {
        stroke: url(#linear-gradient-14);
      }

      .cls-8 {
        stroke: url(#linear-gradient-16);
      }

      .cls-18 {
        fill: #d4ffed;
      }

      .cls-9 {
        stroke: url(#linear-gradient-4);
      }

      .cls-10 {
        stroke: url(#linear-gradient-6);
      }

      .cls-11 {
        stroke: url(#linear-gradient-10);
      }

      .cls-12 {
        stroke: url(#linear-gradient-7);
      }

      .cls-13 {
        stroke: url(#linear-gradient-11);
      }

      .cls-14 {
        stroke: url(#linear-gradient-15);
      }

      .cls-19 {
        fill: #fdffa3;
        stroke: #fbb03b;
        stroke-miterlimit: 10;
      }

      .cls-15 {
        stroke: url(#linear-gradient-3);
      }

      .cls-16 {
        stroke: url(#linear-gradient-13);
      }

      .cls-17 {
        stroke: url(#linear-gradient-8);
      }
    </style>
    <linearGradient id="linear-gradient" x1="68.27" y1="93.53" x2="104.47" y2="30.82" gradientUnits="userSpaceOnUse">
      <stop offset="0" stop-color="#3fffb1"/>
      <stop offset=".5" stop-color="#1cc99c"/>
      <stop offset="1" stop-color="#00bfac"/>
    </linearGradient>
    <linearGradient id="linear-gradient-2" x1="40.23" y1="98.55" x2="86.38" y2="18.61" xlink:href="#linear-gradient"/>
    <linearGradient id="linear-gradient-3" x1="49.83" y1="28" x2="63.04" y2="5.13" xlink:href="#linear-gradient"/>
    <linearGradient id="linear-gradient-4" x1="75.31" y1="39.08" x2="86.18" y2="20.26" xlink:href="#linear-gradient"/>
    <linearGradient id="linear-gradient-5" x1="56.22" y1="156.93" x2="102.35" y2="77.03" xlink:href="#linear-gradient"/>
    <linearGradient id="linear-gradient-6" x1="123.77" y1="103.52" x2="137.81" y2="79.19" xlink:href="#linear-gradient"/>
    <linearGradient id="linear-gradient-7" x1="122.98" y1="80.34" x2="138.92" y2="52.73" xlink:href="#linear-gradient"/>
    <linearGradient id="linear-gradient-8" x1="127.99" y1="57.68" x2="133.17" y2="48.69" xlink:href="#linear-gradient"/>
    <linearGradient id="linear-gradient-9" x1="122.98" y1="62.73" x2="139.23" y2="34.58" xlink:href="#linear-gradient"/>
    <linearGradient id="linear-gradient-10" x1="127.2" y1="76.63" x2="134.17" y2="64.58" xlink:href="#linear-gradient"/>
    <linearGradient id="linear-gradient-11" x1="122.98" y1="95.65" x2="138.7" y2="68.41" xlink:href="#linear-gradient"/>
    <linearGradient id="linear-gradient-12" x1="45.66" y1="93.1" x2="59.08" y2="69.85" xlink:href="#linear-gradient"/>
    <linearGradient id="linear-gradient-13" x1="45.49" y1="373.12" x2="59.24" y2="349.31" gradientTransform="translate(0 435.56) scale(1 -.94)" xlink:href="#linear-gradient"/>
    <linearGradient id="linear-gradient-14" x1="45.68" y1="99.53" x2="59.11" y2="76.28" xlink:href="#linear-gradient"/>
    <linearGradient id="linear-gradient-15" x1="35.14" y1="103.07" x2="47.08" y2="82.4" xlink:href="#linear-gradient"/>
    <linearGradient id="linear-gradient-16" x1="57.66" y1="103.07" x2="69.59" y2="82.4" xlink:href="#linear-gradient"/>
  </defs>
  <g>
    <polygon class="cls-18" points="83.89 21.53 104.41 50.34 124.92 79.14 83.89 79.14 42.85 79.14 63.37 50.34 83.89 21.53"/>
    <polygon class="cls-18" points="58.74 5.25 85.06 42.19 111.39 79.14 58.74 79.14 6.1 79.14 32.42 42.19 58.74 5.25"/>
    <polygon class="cls-18" points="58.74 5.25 44.52 25.22 52.97 21.53 56.96 25.22 59.97 21.53 64.83 25.22 66 21.53 72.97 25.22 58.74 5.25"/>
    <polygon class="cls-18" points="83.89 21.53 72.38 37.68 80.9 32.43 84.72 37.79 85.49 32.43 94.88 36.97 83.89 21.53"/>
    <path class="cls-18" d="M25.66,104.41h114.29c10.93,0,19.81,8.88,19.81,19.81v3.93H5.86v-3.93c0-10.93,8.88-19.81,19.81-19.81Z"/>
    <rect class="cls-18" x="131.43" y="82.97" width="8.42" height="25.27"/>
    <g>
      <path class="cls-18" d="M155.07,75.31h-8.92l-7.39-5.44c-1.92-1.41-5.04-1.41-6.96,0l-7.39,5.44h-8.92c-4.38,0-6.58-3.89-3.48-6.17l3.8-2.8,3.65-2.69,8.07-5.95h15.51l8.07,5.95,7.45,5.49c3.1,2.28,.9,6.17-3.48,6.17Z"/>
      <path class="cls-18" d="M155.07,57.7h-12.03l-4.27-3.15c-1.92-1.42-5.04-1.42-6.96,0l-4.27,3.15h-12.03c-4.38,0-6.58-3.9-3.48-6.17l7.45-5.49,12.34-9.1c1.92-1.42,5.04-1.42,6.96,0l12.34,9.1,7.45,5.49c3.1,2.28,.9,6.17-3.48,6.17Z"/>
      <path class="cls-18" d="M155.07,90.63h-39.58c-4.38,0-6.58-3.89-3.48-6.17l7.21-5.32,.24-.18,3.5-2.59,1.45-1.07h21.74l4.95,3.65,7.45,5.49c3.1,2.28,.9,6.17-3.48,6.17Z"/>
    </g>
    <rect class="cls-18" x="36.48" y="83.35" width="41.48" height="4.74"/>
    <rect class="cls-18" x="36.51" y="89.78" width="41.48" height="4.74"/>
    <rect class="cls-18" x="43.59" y="85.72" width="4.74" height="22.52"/>
    <rect class="cls-18" x="66.11" y="85.72" width="4.74" height="22.52"/>
    <polygon class="cls-18" points="83.89 21.53 104.41 50.34 124.92 79.14 83.89 79.14 42.85 79.14 63.37 50.34 83.89 21.53"/>
    <polygon class="cls-18" points="58.74 5.25 85.06 42.19 111.39 79.14 58.74 79.14 6.1 79.14 32.42 42.19 58.74 5.25"/>
    <polygon class="cls-18" points="58.74 5.25 44.52 25.22 52.97 21.53 56.96 25.22 59.97 21.53 64.83 25.22 66 21.53 72.97 25.22 58.74 5.25"/>
    <polygon class="cls-18" points="83.89 21.53 72.38 37.68 80.9 32.43 84.72 37.79 85.49 32.43 94.88 36.97 83.89 21.53"/>
    <path class="cls-18" d="M25.66,104.41h114.29c10.93,0,19.81,8.88,19.81,19.81v3.93H5.86v-3.93c0-10.93,8.88-19.81,19.81-19.81Z"/>
    <rect class="cls-18" x="131.43" y="82.97" width="8.42" height="25.27"/>
    <g>
      <path class="cls-18" d="M155.07,75.31h-8.92l-7.39-5.44c-1.92-1.41-5.04-1.41-6.96,0l-7.39,5.44h-8.92c-4.38,0-6.58-3.89-3.48-6.17l3.8-2.8,3.65-2.69,8.07-5.95h15.51l8.07,5.95,7.45,5.49c3.1,2.28,.9,6.17-3.48,6.17Z"/>
      <path class="cls-18" d="M143.03,57.7h-15.51l4.27-3.15c1.92-1.42,5.04-1.42,6.96,0l4.27,3.15Z"/>
      <path class="cls-18" d="M155.07,57.7h-12.03l-4.27-3.15c-1.92-1.42-5.04-1.42-6.96,0l-4.27,3.15h-12.03c-4.38,0-6.58-3.9-3.48-6.17l7.45-5.49,12.34-9.1c1.92-1.42,5.04-1.42,6.96,0l12.34,9.1,7.45,5.49c3.1,2.28,.9,6.17-3.48,6.17Z"/>
      <path class="cls-18" d="M146.15,75.31h-21.74l7.39-5.44c1.92-1.41,5.04-1.41,6.96,0l7.39,5.44Z"/>
      <path class="cls-18" d="M155.07,90.63h-39.58c-4.38,0-6.58-3.89-3.48-6.17l7.21-5.32,.24-.18,3.5-2.59,1.45-1.07h21.74l4.95,3.65,7.45,5.49c3.1,2.28,.9,6.17-3.48,6.17Z"/>
    </g>
    <rect class="cls-18" x="36.48" y="83.35" width="41.48" height="4.74"/>
    <rect class="cls-18" x="36.48" y="96.88" width="41.48" height="5.17"/>
    <rect class="cls-18" x="36.51" y="89.78" width="41.48" height="4.74"/>
    <rect class="cls-18" x="43.59" y="85.72" width="4.74" height="22.52"/>
    <rect class="cls-18" x="66.11" y="85.72" width="4.74" height="22.52"/>
  </g>
  <g>
    <polygon class="cls-6" points="79.03 17.29 99.55 46.09 120.07 74.89 79.03 74.89 37.99 74.89 58.51 46.09 79.03 17.29"/>
    <polygon class="cls-6" points="53.89 1 80.21 37.95 106.53 74.89 53.89 74.89 1.25 74.89 27.57 37.95 53.89 1"/>
    <polygon class="cls-6" points="53.89 1 39.66 20.97 48.12 17.29 52.1 20.97 55.12 17.29 59.98 20.97 61.15 17.29 68.12 20.97 53.89 1"/>
    <polygon class="cls-6" points="79.03 17.29 67.53 33.43 76.04 28.18 79.87 33.54 80.63 28.18 90.03 32.72 79.03 17.29"/>
    <path class="cls-6" d="M20.81,100.16h114.29c10.93,0,19.81,8.88,19.81,19.81v3.93H1v-3.93c0-10.93,8.88-19.81,19.81-19.81Z"/>
    <rect class="cls-6" x="126.58" y="78.72" width="8.42" height="25.27"/>
    <g>
      <path class="cls-6" d="M150.21,71.06h-8.92l-7.39-5.44c-1.92-1.41-5.04-1.41-6.96,0l-7.39,5.44h-8.92c-4.38,0-6.58-3.89-3.48-6.17l3.8-2.8,3.65-2.69,8.07-5.95h15.51l8.07,5.95,7.45,5.49c3.1,2.28,.9,6.17-3.48,6.17Z"/>
      <path class="cls-6" d="M150.21,53.45h-12.03l-4.27-3.15c-1.92-1.42-5.04-1.42-6.96,0l-4.27,3.15h-12.03c-4.38,0-6.58-3.9-3.48-6.17l7.45-5.49,12.34-9.1c1.92-1.42,5.04-1.42,6.96,0l12.34,9.1,7.45,5.49c3.1,2.28,.9,6.17-3.48,6.17Z"/>
      <path class="cls-6" d="M150.21,86.38h-39.58c-4.38,0-6.58-3.89-3.48-6.17l7.21-5.32,.24-.18,3.5-2.59,1.45-1.07h21.74l4.95,3.65,7.45,5.49c3.1,2.28,.9,6.17-3.48,6.17Z"/>
    </g>
    <rect class="cls-6" x="31.63" y="79.1" width="41.48" height="4.74"/>
    <rect class="cls-6" x="31.66" y="85.54" width="41.48" height="4.74"/>
    <rect class="cls-6" x="38.74" y="81.47" width="4.74" height="22.52"/>
    <rect class="cls-6" x="61.25" y="81.47" width="4.74" height="22.52"/>
    <polygon class="cls-4" points="79.03 17.29 99.55 46.09 120.07 74.89 79.03 74.89 37.99 74.89 58.51 46.09 79.03 17.29"/>
    <polygon class="cls-5" points="53.89 1 80.21 37.95 106.53 74.89 53.89 74.89 1.25 74.89 27.57 37.95 53.89 1"/>
    <polygon class="cls-15" points="53.89 1 39.66 20.97 48.12 17.29 52.1 20.97 55.12 17.29 59.98 20.97 61.15 17.29 68.12 20.97 53.89 1"/>
    <polygon class="cls-9" points="79.03 17.29 67.53 33.43 76.04 28.18 79.87 33.54 80.63 28.18 90.03 32.72 79.03 17.29"/>
    <path class="cls-3" d="M20.81,100.16h114.29c10.93,0,19.81,8.88,19.81,19.81v3.93H1v-3.93c0-10.93,8.88-19.81,19.81-19.81Z"/>
    <rect class="cls-10" x="126.58" y="78.72" width="8.42" height="25.27"/>
    <g>
      <path class="cls-12" d="M150.21,71.06h-8.92l-7.39-5.44c-1.92-1.41-5.04-1.41-6.96,0l-7.39,5.44h-8.92c-4.38,0-6.58-3.89-3.48-6.17l3.8-2.8,3.65-2.69,8.07-5.95h15.51l8.07,5.95,7.45,5.49c3.1,2.28,.9,6.17-3.48,6.17Z"/>
      <path class="cls-17" d="M138.18,53.45h-15.51l4.27-3.15c1.92-1.42,5.04-1.42,6.96,0l4.27,3.15Z"/>
      <path class="cls-2" d="M150.21,53.45h-12.03l-4.27-3.15c-1.92-1.42-5.04-1.42-6.96,0l-4.27,3.15h-12.03c-4.38,0-6.58-3.9-3.48-6.17l7.45-5.49,12.34-9.1c1.92-1.42,5.04-1.42,6.96,0l12.34,9.1,7.45,5.49c3.1,2.28,.9,6.17-3.48,6.17Z"/>
      <path class="cls-11" d="M141.29,71.06h-21.74l7.39-5.44c1.92-1.41,5.04-1.41,6.96,0l7.39,5.44Z"/>
      <path class="cls-13" d="M150.21,86.38h-39.58c-4.38,0-6.58-3.89-3.48-6.17l7.21-5.32,.24-.18,3.5-2.59,1.45-1.07h21.74l4.95,3.65,7.45,5.49c3.1,2.28,.9,6.17-3.48,6.17Z"/>
    </g>
    <rect class="cls-1" x="31.63" y="79.1" width="41.48" height="4.74"/>
    <rect class="cls-16" x="31.63" y="92.63" width="41.48" height="5.17"/>
    <rect class="cls-7" x="31.66" y="85.54" width="41.48" height="4.74"/>
    <rect class="cls-14" x="38.74" y="81.47" width="4.74" height="22.52"/>
    <rect class="cls-8" x="61.25" y="81.47" width="4.74" height="22.52"/>
  </g>
  <path class="cls-19" d="M23.61,112.02l2.1,5.73c.19,.52,.64,.92,1.2,1.08l6.22,1.73c1.41,.39,1.76,2.12,.59,2.92l-5.15,3.52c-.47,.32-.73,.83-.7,1.38l.28,6.01c.06,1.37-1.58,2.18-2.79,1.37l-5.29-3.55c-.48-.32-1.09-.4-1.64-.22l-6.05,1.99c-1.38,.45-2.74-.77-2.31-2.07l1.89-5.72c.17-.52,.06-1.08-.31-1.52l-4.01-4.78c-.91-1.09-.11-2.66,1.36-2.65h6.45c.58,.02,1.12-.25,1.45-.7l3.57-4.95c.81-1.13,2.67-.87,3.15,.43Z"/>
  <path class="cls-19" d="M35.5,102.37l2.94,2.15c.27,.19,.61,.24,.92,.14l3.44-1.21c.78-.27,1.54,.47,1.28,1.25l-1.13,3.46c-.1,.31-.04,.66,.16,.92l2.21,2.9c.5,.66,.03,1.61-.8,1.61h-3.64c-.33,0-.64,.15-.82,.43l-2.07,3c-.47,.68-1.52,.53-1.77-.26l-1.12-3.47c-.1-.31-.35-.56-.67-.65l-3.49-1.04c-.79-.24-.97-1.28-.3-1.77l2.95-2.14c.27-.19,.42-.5,.41-.83l-.09-3.64c-.02-.83,.92-1.32,1.59-.83Z"/>
  <path class="cls-19" d="M108.35,48.18l1.07,3.88c.1,.35,.36,.63,.7,.75l3.81,1.32c.87,.3,1.01,1.46,.25,1.97l-3.36,2.22c-.3,.2-.49,.54-.5,.9l-.08,4.03c-.02,.92-1.08,1.42-1.8,.84l-3.15-2.51c-.28-.23-.66-.3-1.01-.19l-3.86,1.17c-.88,.27-1.68-.59-1.36-1.45l1.42-3.77c.13-.34,.08-.72-.13-1.02l-2.31-3.31c-.52-.75,.04-1.78,.96-1.74l4.03,.18c.36,.02,.71-.15,.93-.44l2.43-3.21c.55-.73,1.7-.51,1.95,.37Z"/>
</svg>