<?xml version="1.0" encoding="UTF-8"?>
<svg id="Layer_1" data-name="Layer 1" xmlns="http://www.w3.org/2000/svg" xmlns:xlink="http://www.w3.org/1999/xlink" viewBox="0 0 167 155.37">
  <defs>
    <style>
      .cls-1 {
        stroke: url(#linear-gradient-9);
      }

      .cls-1, .cls-2, .cls-3, .cls-4, .cls-5, .cls-6, .cls-7, .cls-8, .cls-9, .cls-10 {
        fill: none;
        stroke-linejoin: round;
        stroke-width: 2px;
      }

      .cls-2 {
        stroke: url(#linear-gradient-5);
      }

      .cls-3 {
        stroke: url(#linear-gradient);
      }

      .cls-4 {
        stroke: url(#linear-gradient-2);
      }

      .cls-5 {
        stroke: url(#linear-gradient-4);
      }

      .cls-11 {
        fill: #f9ffb0;
      }

      .cls-6 {
        stroke: url(#linear-gradient-6);
      }

      .cls-7 {
        stroke: url(#linear-gradient-10);
      }

      .cls-8 {
        stroke: url(#linear-gradient-7);
      }

      .cls-12 {
        fill: #fdffa3;
        stroke: #fbb03b;
        stroke-miterlimit: 10;
      }

      .cls-9 {
        stroke: url(#linear-gradient-3);
      }

      .cls-10 {
        stroke: url(#linear-gradient-8);
      }
    </style>
    <linearGradient id="linear-gradient" x1="43.28" y1="12.17" x2="43.28" y2="80.96" gradientUnits="userSpaceOnUse">
      <stop offset="0" stop-color="#ffe53f"/>
      <stop offset=".17" stop-color="#ffe635"/>
      <stop offset=".45" stop-color="#ffea1c"/>
      <stop offset=".52" stop-color="#ffec15"/>
      <stop offset=".99" stop-color="#e9b000"/>
    </linearGradient>
    <linearGradient id="linear-gradient-2" x1="114.88" y1="11.19" x2="114.88" y2="81.92" xlink:href="#linear-gradient"/>
    <linearGradient id="linear-gradient-3" x1="139.13" y1="30.62" x2="139.13" y2="59.09" xlink:href="#linear-gradient"/>
    <linearGradient id="linear-gradient-4" x1="116.26" y1="90.24" x2="116.26" y2="140.36" xlink:href="#linear-gradient"/>
    <linearGradient id="linear-gradient-5" x1="116.26" y1="105.25" x2="116.26" y2="155.37" xlink:href="#linear-gradient"/>
    <linearGradient id="linear-gradient-6" x1="50.63" y1="90.02" x2="50.63" y2="155.15" xlink:href="#linear-gradient"/>
    <linearGradient id="linear-gradient-7" x1="34.85" y1="90.02" x2="34.85" y2="155.11" xlink:href="#linear-gradient"/>
    <linearGradient id="linear-gradient-8" x1="42.41" y1="99.49" x2="42.41" y2="101.5" xlink:href="#linear-gradient"/>
    <linearGradient id="linear-gradient-9" x1="42.43" y1="99.04" x2="42.43" y2="113.53" xlink:href="#linear-gradient"/>
    <linearGradient id="linear-gradient-10" x1="42.73" y1="131.08" x2="42.73" y2="145.58" xlink:href="#linear-gradient"/>
  </defs>
  <g>
    <polygon class="cls-11" points="72.48 22.89 72.48 33.93 54.27 33.93 54.27 75.08 43.23 75.08 43.23 33.93 25.23 33.93 25.23 22.89 43.23 22.89 43.23 8.3 54.27 8.3 54.27 22.89 72.48 22.89"/>
    <path class="cls-11" d="M148.37,68.52c-5.88,4.71-13.34,7.52-21.46,7.52-18.98,0-34.37-15.39-34.37-34.37S107.94,7.31,126.91,7.31c7.42,0,14.29,2.35,19.9,6.35-2.94-.99-6.08-1.53-9.35-1.53-16.15,0-29.24,13.09-29.24,29.24s13.09,29.24,29.24,29.24c3.86,0,7.54-.75,10.91-2.1Z"/>
    <polygon class="cls-11" points="144.7 26.74 147.99 36.85 158.62 36.85 150.02 43.1 153.3 53.21 144.7 46.96 136.1 53.21 139.39 43.1 130.78 36.85 141.42 36.85 144.7 26.74"/>
    <polygon class="cls-11" points="121.84 86.36 135.73 110.42 149.62 134.48 121.84 134.48 94.06 134.48 107.95 110.42 121.84 86.36"/>
    <polygon class="cls-11" points="121.84 149.49 107.95 125.43 94.06 101.37 121.84 101.37 149.62 101.37 135.73 125.43 121.84 149.49"/>
    <path class="cls-11" d="M80.11,117.71c0,17.43-14.13,31.57-31.57,31.57h-.45c-.12,0-.24,0-.36,0-.26,0-.52-.02-.78-.04h-.04c-8.16-.6-14.61-7.42-14.61-15.74s7.07-15.78,15.78-15.78,15.78-7.07,15.78-15.78-6.99-15.7-15.63-15.78h.3c17.43,0,31.57,14.13,31.57,31.57Z"/>
    <path class="cls-11" d="M63.88,101.92c0,8.71-7.07,15.78-15.78,15.78s-15.78,7.07-15.78,15.78,6.45,15.14,14.61,15.74c-16.68-.84-29.95-14.63-29.95-31.52s13.27-30.68,29.95-31.52h.04c.25-.02,.51-.03,.78-.04,.17,0,.34,0,.51,0,8.64,.08,15.63,7.13,15.63,15.78Z"/>
    <path class="cls-11" d="M48.25,95.61c-.17,0-.34,0-.51,0,.12,0,.24,0,.36,0h.15Z"/>
    <circle class="cls-11" cx="48.01" cy="101.41" r="6.25"/>
    <circle class="cls-11" cx="48.31" cy="133.45" r="6.25"/>
  </g>
  <g>
    <polygon class="cls-3" points="66.9 27.77 66.9 38.81 48.7 38.81 48.7 79.96 37.65 79.96 37.65 38.81 19.65 38.81 19.65 27.77 37.65 27.77 37.65 13.17 48.7 13.17 48.7 27.77 66.9 27.77"/>
    <path class="cls-4" d="M142.8,73.39c-5.88,4.71-13.34,7.52-21.46,7.52-18.98,0-34.37-15.39-34.37-34.37S102.36,12.19,121.34,12.19c7.42,0,14.29,2.35,19.9,6.35-2.94-.99-6.08-1.53-9.35-1.53-16.15,0-29.24,13.09-29.24,29.24s13.09,29.24,29.24,29.24c3.86,0,7.54-.75,10.91-2.1Z"/>
    <polygon class="cls-9" points="139.13 31.62 142.41 41.73 153.04 41.73 144.44 47.98 147.73 58.09 139.13 51.84 130.52 58.09 133.81 47.98 125.21 41.73 135.84 41.73 139.13 31.62"/>
    <polygon class="cls-5" points="116.26 91.24 130.15 115.3 144.04 139.36 116.26 139.36 88.48 139.36 102.37 115.3 116.26 91.24"/>
    <polygon class="cls-2" points="116.26 154.37 102.37 130.31 88.48 106.25 116.26 106.25 144.04 106.25 130.15 130.31 116.26 154.37"/>
    <path class="cls-6" d="M74.54,122.59c0,17.43-14.13,31.57-31.57,31.57h-.45c-.12,0-.24,0-.36,0-.26,0-.52-.02-.78-.04h-.04c-8.16-.6-14.61-7.42-14.61-15.74s7.07-15.78,15.78-15.78,15.78-7.07,15.78-15.78-6.99-15.7-15.63-15.78h.3c17.43,0,31.57,14.13,31.57,31.57Z"/>
    <path class="cls-8" d="M58.3,106.8c0,8.71-7.07,15.78-15.78,15.78s-15.78,7.07-15.78,15.78,6.45,15.14,14.61,15.74c-16.68-.84-29.95-14.63-29.95-31.52s13.27-30.68,29.95-31.52h.04c.25-.02,.51-.03,.78-.04,.17,0,.34,0,.51,0,8.64,.08,15.63,7.13,15.63,15.78Z"/>
    <path class="cls-10" d="M42.67,100.49c-.17,0-.34,0-.51,0,.12,0,.24,0,.36,0h.15Z"/>
    <circle class="cls-1" cx="42.43" cy="106.29" r="6.25"/>
    <circle class="cls-7" cx="42.73" cy="138.33" r="6.25"/>
  </g>
  <path class="cls-12" d="M159.69,111.43l1.16,4.17c.1,.38,.39,.68,.76,.8l4.09,1.41c.93,.32,1.09,1.57,.27,2.11l-3.61,2.39c-.33,.22-.52,.58-.53,.97l-.07,4.33c-.02,.98-1.15,1.52-1.93,.91l-3.39-2.69c-.31-.24-.71-.32-1.09-.21l-4.14,1.27c-.94,.29-1.8-.63-1.46-1.55l1.51-4.05c.14-.37,.08-.78-.14-1.1l-2.48-3.54c-.56-.81,.04-1.91,1.02-1.87l4.32,.18c.39,.02,.76-.16,1-.47l2.6-3.46c.59-.79,1.83-.55,2.09,.4Z"/>
  <path class="cls-12" d="M11.29,67.48l3.25,4.2c.29,.38,.75,.59,1.23,.56l5.3-.3c1.21-.07,1.97,1.28,1.29,2.27l-2.99,4.39c-.27,.4-.33,.9-.15,1.35l1.92,4.95c.44,1.13-.61,2.26-1.77,1.93l-5.1-1.49c-.46-.13-.96-.03-1.33,.27l-4.11,3.36c-.94,.76-2.34,.12-2.38-1.08l-.16-5.3c-.01-.48-.26-.92-.67-1.18l-4.46-2.87c-1.01-.65-.84-2.19,.3-2.6l5-1.79c.45-.16,.79-.54,.92-1l1.35-5.13c.31-1.17,1.82-1.47,2.56-.52Z"/>
  <path class="cls-12" d="M82.72,1.02l1.5,3.04c.14,.27,.4,.46,.7,.51l3.35,.49c.76,.11,1.07,1.05,.52,1.59l-2.42,2.36c-.22,.21-.32,.52-.27,.82l.57,3.34c.13,.76-.67,1.34-1.35,.98l-3-1.58c-.27-.14-.59-.14-.86,0l-3,1.58c-.68,.36-1.48-.22-1.35-.98l.57-3.34c.05-.3-.05-.61-.27-.82l-2.42-2.36c-.55-.54-.25-1.47,.52-1.59l3.35-.49c.3-.04,.56-.23,.7-.51l1.5-3.04c.34-.69,1.33-.69,1.67,0Z"/>
</svg>