<?xml version="1.0" encoding="UTF-8"?>
<svg id="Layer_1" data-name="Layer 1" xmlns="http://www.w3.org/2000/svg" xmlns:xlink="http://www.w3.org/1999/xlink" viewBox="0 0 190.5 148.66">
  <defs>
    <style>
      .cls-1 {
        stroke: url(#linear-gradient-16);
      }

      .cls-1, .cls-2, .cls-3, .cls-4, .cls-5, .cls-6, .cls-7, .cls-8, .cls-9, .cls-10, .cls-11, .cls-12, .cls-13, .cls-14, .cls-15, .cls-16, .cls-17, .cls-18, .cls-19, .cls-20, .cls-21, .cls-22, .cls-23 {
        stroke-linejoin: round;
        stroke-width: 2px;
      }

      .cls-1, .cls-2, .cls-3, .cls-8, .cls-9, .cls-21 {
        fill: #fff;
      }

      .cls-2 {
        stroke: url(#linear-gradient-15);
      }

      .cls-3 {
        stroke: url(#linear-gradient-14);
      }

      .cls-4 {
        stroke: url(#linear-gradient-9);
      }

      .cls-4, .cls-5, .cls-6, .cls-7, .cls-10, .cls-11, .cls-12, .cls-13, .cls-14, .cls-15, .cls-16, .cls-17, .cls-18, .cls-19, .cls-20, .cls-22, .cls-23 {
        fill: none;
      }

      .cls-5 {
        stroke: url(#linear-gradient-5);
      }

      .cls-6 {
        stroke: url(#linear-gradient);
      }

      .cls-7 {
        stroke: url(#linear-gradient-2);
      }

      .cls-8 {
        stroke: url(#linear-gradient-17);
      }

      .cls-9 {
        stroke: url(#linear-gradient-13);
      }

      .cls-10 {
        stroke: url(#linear-gradient-23);
      }

      .cls-11 {
        stroke: url(#linear-gradient-20);
      }

      .cls-12 {
        stroke: url(#linear-gradient-4);
      }

      .cls-13 {
        stroke: url(#linear-gradient-19);
      }

      .cls-14 {
        stroke: url(#linear-gradient-6);
      }

      .cls-15 {
        stroke: url(#linear-gradient-22);
      }

      .cls-16 {
        stroke: url(#linear-gradient-10);
      }

      .cls-17 {
        stroke: url(#linear-gradient-7);
      }

      .cls-18 {
        stroke: url(#linear-gradient-11);
      }

      .cls-19 {
        stroke: url(#linear-gradient-21);
      }

      .cls-24 {
        fill: #fdffa3;
        stroke: #fbb03b;
        stroke-miterlimit: 10;
      }

      .cls-20 {
        stroke: url(#linear-gradient-3);
      }

      .cls-21 {
        stroke: url(#linear-gradient-12);
      }

      .cls-25 {
        fill: #d9ffdb;
      }

      .cls-26 {
        fill: #cfffd2;
      }

      .cls-22 {
        stroke: url(#linear-gradient-18);
      }

      .cls-23 {
        stroke: url(#linear-gradient-8);
      }
    </style>
    <linearGradient id="linear-gradient" x1="141.24" y1="100.05" x2="179.24" y2="100.05" gradientUnits="userSpaceOnUse">
      <stop offset="0" stop-color="#00bf0c"/>
      <stop offset=".5" stop-color="#009431"/>
      <stop offset="1" stop-color="#006a56"/>
    </linearGradient>
    <linearGradient id="linear-gradient-2" x1="152.3" y1="85.34" x2="171.73" y2="85.34" xlink:href="#linear-gradient"/>
    <linearGradient id="linear-gradient-3" x1="0" y1="89.35" x2="50.57" y2="89.35" xlink:href="#linear-gradient"/>
    <linearGradient id="linear-gradient-4" x1="11.06" y1="90.99" x2="139.9" y2="90.99" xlink:href="#linear-gradient"/>
    <linearGradient id="linear-gradient-5" x1="74.06" y1="91.22" x2="83.38" y2="91.22" gradientTransform="translate(4.46 -3.67) rotate(2.75)" xlink:href="#linear-gradient"/>
    <linearGradient id="linear-gradient-6" x1="106.92" y1="129.31" x2="129.94" y2="129.31" xlink:href="#linear-gradient"/>
    <linearGradient id="linear-gradient-7" x1="103.1" y1="129.31" x2="133.76" y2="129.31" xlink:href="#linear-gradient"/>
    <linearGradient id="linear-gradient-8" x1="31.31" y1="129.31" x2="54.32" y2="129.31" xlink:href="#linear-gradient"/>
    <linearGradient id="linear-gradient-9" x1="27.48" y1="129.31" x2="58.14" y2="129.31" xlink:href="#linear-gradient"/>
    <linearGradient id="linear-gradient-10" x1="89.61" y1="91.06" x2="98.92" y2="91.06" gradientTransform="translate(4.47 -4.41) rotate(2.75)" xlink:href="#linear-gradient"/>
    <linearGradient id="linear-gradient-11" x1="59.39" y1="91.06" x2="68.71" y2="91.06" gradientTransform="translate(4.44 -2.96) rotate(2.75)" xlink:href="#linear-gradient"/>
    <linearGradient id="linear-gradient-12" x1="67.02" y1="95.17" x2="115.37" y2="95.17" xlink:href="#linear-gradient"/>
    <linearGradient id="linear-gradient-13" x1="67.09" y1="66.13" x2="102.77" y2="66.13" xlink:href="#linear-gradient"/>
    <linearGradient id="linear-gradient-14" x1="96.16" y1="24.36" x2="137.31" y2="24.36" xlink:href="#linear-gradient"/>
    <linearGradient id="linear-gradient-15" x1="123.43" y1="29.37" x2="154.96" y2="29.37" xlink:href="#linear-gradient"/>
    <linearGradient id="linear-gradient-16" x1="148.46" y1="79.68" x2="183.52" y2="79.68" xlink:href="#linear-gradient"/>
    <linearGradient id="linear-gradient-17" x1="119.38" y1="94.69" x2="172.71" y2="94.69" xlink:href="#linear-gradient"/>
    <linearGradient id="linear-gradient-18" x1="67.02" y1="95.17" x2="115.37" y2="95.17" xlink:href="#linear-gradient"/>
    <linearGradient id="linear-gradient-19" x1="67.09" y1="66.13" x2="102.77" y2="66.13" xlink:href="#linear-gradient"/>
    <linearGradient id="linear-gradient-20" x1="96.16" y1="24.36" x2="137.31" y2="24.36" xlink:href="#linear-gradient"/>
    <linearGradient id="linear-gradient-21" x1="123.43" y1="29.37" x2="154.96" y2="29.37" xlink:href="#linear-gradient"/>
    <linearGradient id="linear-gradient-22" x1="148.46" y1="79.68" x2="183.52" y2="79.68" xlink:href="#linear-gradient"/>
    <linearGradient id="linear-gradient-23" x1="119.38" y1="94.69" x2="172.71" y2="94.69" xlink:href="#linear-gradient"/>
  </defs>
  <g>
    <polygon class="cls-25" points="148.7 78.45 148.7 131.69 184.7 131.69 184.7 96.66 167.92 78.45 148.7 78.45"/>
    <polygon class="cls-25" points="159.76 84.52 159.76 96.2 177.18 96.2 177.18 93.34 169.06 84.52 159.76 84.52"/>
    <polygon class="cls-25" points="56.02 60.34 8.76 128.39 7.46 84.52 35.18 60.34 56.02 60.34"/>
    <polygon class="cls-25" points="56.02 60.34 18.52 114.34 18.52 131.69 145.36 131.69 145.36 60.34 56.02 60.34"/>
    <rect class="cls-25" x="83.35" y="58.05" width="3.66" height="76.39" transform="translate(-4.51 4.19) rotate(-2.75)"/>
    <circle class="cls-25" cx="124.89" cy="134.33" r="10.51"/>
    <circle class="cls-25" cx="124.89" cy="134.33" r="14.33"/>
    <circle class="cls-25" cx="49.27" cy="134.33" r="10.51"/>
    <circle class="cls-25" cx="49.27" cy="134.33" r="14.33"/>
    <rect class="cls-25" x="98.89" y="57.89" width="3.66" height="76.39" transform="translate(-4.49 4.94) rotate(-2.75)"/>
    <rect class="cls-25" x="68.68" y="57.89" width="3.66" height="76.39" transform="translate(-4.52 3.49) rotate(-2.75)"/>
  </g>
  <g>
    <polygon class="cls-6" points="142.24 73.43 142.24 126.66 178.24 126.66 178.24 91.64 161.47 73.43 142.24 73.43"/>
    <polygon class="cls-7" points="153.3 79.5 153.3 91.18 170.73 91.18 170.73 88.31 162.61 79.5 153.3 79.5"/>
    <polygon class="cls-20" points="49.57 55.32 2.31 123.37 1 79.5 28.72 55.32 49.57 55.32"/>
    <polygon class="cls-12" points="49.57 55.32 12.06 109.32 12.06 126.66 138.9 126.66 138.9 55.32 49.57 55.32"/>
    <rect class="cls-5" x="76.89" y="53.03" width="3.66" height="76.39" transform="translate(-4.28 3.88) rotate(-2.75)"/>
    <circle class="cls-14" cx="118.43" cy="129.31" r="10.51"/>
    <circle class="cls-17" cx="118.43" cy="129.31" r="14.33"/>
    <circle class="cls-23" cx="42.81" cy="129.31" r="10.51"/>
    <circle class="cls-4" cx="42.81" cy="129.31" r="14.33"/>
    <rect class="cls-16" x="92.44" y="52.87" width="3.66" height="76.39" transform="translate(-4.26 4.62) rotate(-2.75)"/>
    <rect class="cls-18" x="62.22" y="52.87" width="3.66" height="76.39" transform="translate(-4.29 3.17) rotate(-2.75)"/>
  </g>
  <g>
    <polygon class="cls-25" points="114.37 86.18 114.37 104.17 78.4 104.17 68.02 86.3 68.09 86.18 114.37 86.18"/>
    <polygon class="cls-25" points="101.77 79.93 94.78 75.91 88.85 86.18 68.09 86.18 79.2 66.94 72.43 63.04 87.08 54.56 101.72 46.08 101.75 63 101.77 79.93"/>
    <polygon class="cls-25" points="112.61 44.41 97.16 35.2 115.58 4.3 136.25 4.53 136.31 4.66 112.61 44.41"/>
    <polygon class="cls-25" points="124.43 36.79 131.46 32.84 125.68 22.48 136.31 4.66 147.15 24.05 153.96 20.23 153.75 37.16 153.53 54.08 138.98 45.44 124.43 36.79"/>
    <polygon class="cls-25" points="149.46 63.71 165.23 55.06 182.52 86.6 171.85 104.3 171.71 104.29 149.46 63.71"/>
    <polygon class="cls-25" points="150.04 77.76 149.87 85.83 161.73 86.09 171.71 104.29 149.5 103.8 149.34 111.61 134.86 102.84 120.38 94.08 135.2 85.92 150.04 77.76"/>
  </g>
  <g>
    <polygon class="cls-21" points="114.37 86.18 114.37 104.17 78.4 104.17 68.02 86.3 68.09 86.18 114.37 86.18"/>
    <polygon class="cls-9" points="101.77 79.93 94.78 75.91 88.85 86.18 68.09 86.18 79.2 66.94 72.43 63.04 87.08 54.56 101.72 46.08 101.75 63 101.77 79.93"/>
    <polygon class="cls-3" points="112.61 44.41 97.16 35.2 115.58 4.3 136.25 4.53 136.31 4.66 112.61 44.41"/>
    <polygon class="cls-2" points="124.43 36.79 131.46 32.84 125.68 22.48 136.31 4.66 147.15 24.05 153.96 20.23 153.75 37.16 153.53 54.08 138.98 45.44 124.43 36.79"/>
    <polygon class="cls-1" points="149.46 63.71 165.23 55.06 182.52 86.6 171.85 104.3 171.71 104.29 149.46 63.71"/>
    <polygon class="cls-8" points="150.04 77.76 149.87 85.83 161.73 86.09 171.71 104.29 149.5 103.8 149.34 111.61 134.86 102.84 120.38 94.08 135.2 85.92 150.04 77.76"/>
  </g>
  <g>
    <polygon class="cls-26" points="110.07 81.88 110.07 99.86 74.1 99.86 63.71 81.99 63.78 81.88 110.07 81.88"/>
    <polygon class="cls-26" points="97.47 75.62 90.48 71.6 84.54 81.88 63.78 81.88 74.89 62.63 68.12 58.74 82.77 50.26 97.42 41.77 97.45 58.7 97.47 75.62"/>
    <polygon class="cls-26" points="108.3 40.1 92.86 30.89 111.28 0 131.94 .23 132.01 .35 108.3 40.1"/>
    <polygon class="cls-26" points="120.13 32.48 127.16 28.54 121.38 18.18 132.01 .35 142.85 19.75 149.66 15.92 149.44 32.85 149.23 49.77 134.68 41.13 120.13 32.48"/>
    <polygon class="cls-26" points="145.16 59.41 160.93 50.76 178.22 82.3 167.54 100 167.41 99.99 145.16 59.41"/>
    <polygon class="cls-26" points="145.73 73.46 145.57 81.52 157.43 81.79 167.41 99.99 145.19 99.5 145.03 107.31 130.55 98.54 116.07 89.78 130.9 81.61 145.73 73.46"/>
  </g>
  <g>
    <polygon class="cls-22" points="114.37 86.18 114.37 104.17 78.4 104.17 68.02 86.3 68.09 86.18 114.37 86.18"/>
    <polygon class="cls-13" points="101.77 79.93 94.78 75.91 88.85 86.18 68.09 86.18 79.2 66.94 72.43 63.04 87.08 54.56 101.72 46.08 101.75 63 101.77 79.93"/>
    <polygon class="cls-11" points="112.61 44.41 97.16 35.2 115.58 4.3 136.25 4.53 136.31 4.66 112.61 44.41"/>
    <polygon class="cls-19" points="124.43 36.79 131.46 32.84 125.68 22.48 136.31 4.66 147.15 24.05 153.96 20.23 153.75 37.16 153.53 54.08 138.98 45.44 124.43 36.79"/>
    <polygon class="cls-15" points="149.46 63.71 165.23 55.06 182.52 86.6 171.85 104.3 171.71 104.29 149.46 63.71"/>
    <polygon class="cls-10" points="150.04 77.76 149.87 85.83 161.73 86.09 171.71 104.29 149.5 103.8 149.34 111.61 134.86 102.84 120.38 94.08 135.2 85.92 150.04 77.76"/>
  </g>
  <path class="cls-24" d="M26.16,113.54l4.9,3.57c.44,.32,1.01,.41,1.53,.23l5.72-2.01c1.3-.46,2.56,.78,2.13,2.09l-1.88,5.76c-.17,.52-.07,1.09,.26,1.53l3.68,4.82c.84,1.1,.05,2.67-1.32,2.67h-6.06c-.55-.01-1.06,.26-1.37,.71l-3.44,4.99c-.78,1.13-2.53,.88-2.95-.43l-1.86-5.77c-.17-.52-.58-.93-1.11-1.08l-5.81-1.73c-1.32-.39-1.62-2.13-.5-2.94l4.91-3.55c.44-.32,.7-.84,.69-1.39l-.14-6.06c-.03-1.38,1.53-2.2,2.64-1.38Z"/>
  <path class="cls-24" d="M167.32,75.27l.77,4.24c.07,.38,.32,.71,.68,.87l3.93,1.77c.89,.4,.94,1.65,.08,2.12l-3.79,2.04c-.34,.18-.57,.53-.61,.91l-.47,4.28c-.11,.97-1.28,1.4-1.99,.73l-3.12-2.98c-.28-.27-.68-.38-1.06-.3l-4.22,.88c-.96,.2-1.73-.79-1.31-1.67l1.87-3.88c.17-.35,.15-.76-.04-1.1l-2.14-3.74c-.49-.85,.21-1.89,1.18-1.76l4.27,.58c.39,.05,.77-.09,1.03-.38l2.89-3.19c.66-.73,1.86-.38,2.04,.58Z"/>
  <path class="cls-24" d="M172.14,33.6l5.35,6.13c.48,.55,1.21,.83,1.94,.75l8.08-.93c1.84-.21,3.12,1.78,2.17,3.36l-4.17,6.98c-.38,.63-.42,1.41-.11,2.07l3.38,7.4c.77,1.68-.72,3.52-2.53,3.1l-7.93-1.81c-.72-.16-1.47,.04-2.01,.53l-5.99,5.5c-1.36,1.25-3.57,.4-3.73-1.44l-.73-8.1c-.07-.73-.49-1.38-1.13-1.75l-7.08-3.99c-1.61-.91-1.48-3.27,.22-4l7.48-3.19c.68-.29,1.17-.89,1.31-1.61l1.61-7.97c.37-1.81,2.65-2.42,3.87-1.03Z"/>
</svg>