<?xml version="1.0" encoding="UTF-8"?>
<svg id="Layer_2" data-name="Layer 2" xmlns="http://www.w3.org/2000/svg" viewBox="0 0 165.51 129">
  <defs>
    <style>
      .cls-1 {
        fill: none;
      }

      .cls-1, .cls-2 {
        stroke: #b3b3b3;
        stroke-linejoin: round;
        stroke-width: 2px;
      }

      .cls-2 {
        fill: #fff;
      }
    </style>
  </defs>
  <g>
    <polygon class="cls-1" points="123.56 63.72 123.56 109.91 154.8 109.91 154.8 79.52 140.25 63.72 123.56 63.72"/>
    <polygon class="cls-1" points="133.16 68.99 133.16 79.12 148.28 79.12 148.28 76.63 141.24 68.99 133.16 68.99"/>
    <polygon class="cls-1" points="43.14 48 2.13 107.06 1 68.99 25.06 48 43.14 48"/>
    <polygon class="cls-1" points="43.14 48 10.6 94.86 10.6 109.91 120.66 109.91 120.66 48 43.14 48"/>
    <rect class="cls-1" x="66.86" y="46.02" width="3.17" height="66.28" transform="translate(-3.72 3.37) rotate(-2.75)"/>
    <circle class="cls-1" cx="102.9" cy="112.21" r="9.12"/>
    <circle class="cls-1" cx="102.9" cy="112.21" r="12.43"/>
    <circle class="cls-1" cx="37.28" cy="112.21" r="9.12"/>
    <circle class="cls-1" cx="37.28" cy="112.21" r="12.43"/>
    <rect class="cls-1" x="80.34" y="45.88" width="3.17" height="66.28" transform="translate(-3.69 4.02) rotate(-2.75)"/>
    <rect class="cls-1" x="54.12" y="45.88" width="3.17" height="66.28" transform="translate(-3.72 2.76) rotate(-2.75)"/>
  </g>
  <g>
    <polygon class="cls-2" points="99.38 74.78 99.38 90.39 68.17 90.39 59.15 74.88 59.22 74.78 99.38 74.78"/>
    <polygon class="cls-2" points="88.45 69.36 82.38 65.87 77.23 74.78 59.22 74.78 68.86 58.09 62.98 54.71 75.7 47.34 88.4 39.98 88.43 54.67 88.45 69.36"/>
    <polygon class="cls-2" points="97.85 38.54 84.44 30.54 100.43 3.74 118.36 3.93 118.42 4.04 97.85 38.54"/>
    <polygon class="cls-2" points="108.11 31.92 114.21 28.5 109.19 19.51 118.42 4.04 127.82 20.87 133.73 17.55 133.55 32.24 133.36 46.93 120.73 39.43 108.11 31.92"/>
    <polygon class="cls-2" points="129.83 55.28 143.51 47.78 158.52 75.15 149.25 90.51 149.14 90.5 129.83 55.28"/>
    <polygon class="cls-2" points="130.33 67.48 130.18 74.48 140.48 74.71 149.14 90.5 129.86 90.08 129.72 96.85 117.15 89.24 104.59 81.64 117.46 74.56 130.33 67.48"/>
  </g>
</svg>