<?xml version="1.0" encoding="UTF-8"?>
<svg id="Layer_1" data-name="Layer 1" xmlns="http://www.w3.org/2000/svg" xmlns:xlink="http://www.w3.org/1999/xlink" viewBox="0 0 165.51 129">
  <defs>
    <style>
      .cls-1 {
        stroke: url(#linear-gradient-16);
      }

      .cls-1, .cls-2, .cls-3, .cls-4, .cls-5, .cls-6, .cls-7, .cls-8, .cls-9, .cls-10, .cls-11, .cls-12, .cls-13, .cls-14, .cls-15, .cls-16, .cls-17, .cls-18, .cls-19, .cls-20, .cls-21, .cls-22, .cls-23 {
        stroke-linejoin: round;
        stroke-width: 2px;
      }

      .cls-1, .cls-2, .cls-3, .cls-8, .cls-9, .cls-21 {
        fill: #fff;
      }

      .cls-2 {
        stroke: url(#linear-gradient-15);
      }

      .cls-3 {
        stroke: url(#linear-gradient-14);
      }

      .cls-4 {
        stroke: url(#linear-gradient-9);
      }

      .cls-4, .cls-5, .cls-6, .cls-7, .cls-10, .cls-11, .cls-12, .cls-13, .cls-14, .cls-15, .cls-16, .cls-17, .cls-18, .cls-19, .cls-20, .cls-22, .cls-23 {
        fill: none;
      }

      .cls-5 {
        stroke: url(#linear-gradient-5);
      }

      .cls-6 {
        stroke: url(#linear-gradient);
      }

      .cls-7 {
        stroke: url(#linear-gradient-2);
      }

      .cls-8 {
        stroke: url(#linear-gradient-17);
      }

      .cls-9 {
        stroke: url(#linear-gradient-13);
      }

      .cls-10 {
        stroke: url(#linear-gradient-23);
      }

      .cls-11 {
        stroke: url(#linear-gradient-20);
      }

      .cls-12 {
        stroke: url(#linear-gradient-4);
      }

      .cls-13 {
        stroke: url(#linear-gradient-19);
      }

      .cls-14 {
        stroke: url(#linear-gradient-6);
      }

      .cls-15 {
        stroke: url(#linear-gradient-22);
      }

      .cls-16 {
        stroke: url(#linear-gradient-10);
      }

      .cls-17 {
        stroke: url(#linear-gradient-7);
      }

      .cls-18 {
        stroke: url(#linear-gradient-11);
      }

      .cls-19 {
        stroke: url(#linear-gradient-21);
      }

      .cls-24 {
        fill: #fdffa3;
        stroke: #fbb03b;
        stroke-miterlimit: 10;
      }

      .cls-20 {
        stroke: url(#linear-gradient-3);
      }

      .cls-21 {
        stroke: url(#linear-gradient-12);
      }

      .cls-25 {
        fill: #d9ffdb;
      }

      .cls-26 {
        fill: #cfffd2;
      }

      .cls-22 {
        stroke: url(#linear-gradient-18);
      }

      .cls-23 {
        stroke: url(#linear-gradient-8);
      }
    </style>
    <linearGradient id="linear-gradient" x1="122.56" y1="86.82" x2="155.8" y2="86.82" gradientUnits="userSpaceOnUse">
      <stop offset="0" stop-color="#00bf0c"/>
      <stop offset=".5" stop-color="#009431"/>
      <stop offset="1" stop-color="#006a56"/>
    </linearGradient>
    <linearGradient id="linear-gradient-2" x1="132.16" y1="74.05" x2="149.28" y2="74.05" xlink:href="#linear-gradient"/>
    <linearGradient id="linear-gradient-3" x1="0" y1="77.53" x2="44.14" y2="77.53" xlink:href="#linear-gradient"/>
    <linearGradient id="linear-gradient-4" x1="9.6" y1="78.96" x2="121.66" y2="78.96" xlink:href="#linear-gradient"/>
    <linearGradient id="linear-gradient-5" x1="64.27" y1="79.16" x2="72.62" y2="79.16" gradientTransform="translate(3.87 -3.19) rotate(2.75)" xlink:href="#linear-gradient"/>
    <linearGradient id="linear-gradient-6" x1="92.78" y1="112.21" x2="113.02" y2="112.21" xlink:href="#linear-gradient"/>
    <linearGradient id="linear-gradient-7" x1="89.46" y1="112.21" x2="116.33" y2="112.21" xlink:href="#linear-gradient"/>
    <linearGradient id="linear-gradient-8" x1="27.17" y1="112.21" x2="47.4" y2="112.21" xlink:href="#linear-gradient"/>
    <linearGradient id="linear-gradient-9" x1="23.85" y1="112.21" x2="50.72" y2="112.21" xlink:href="#linear-gradient"/>
    <linearGradient id="linear-gradient-10" x1="77.76" y1="79.02" x2="86.11" y2="79.02" gradientTransform="translate(3.88 -3.84) rotate(2.75)" xlink:href="#linear-gradient"/>
    <linearGradient id="linear-gradient-11" x1="51.54" y1="79.02" x2="59.89" y2="79.02" gradientTransform="translate(3.85 -2.58) rotate(2.75)" xlink:href="#linear-gradient"/>
    <linearGradient id="linear-gradient-12" x1="58.15" y1="82.59" x2="100.38" y2="82.59" xlink:href="#linear-gradient"/>
    <linearGradient id="linear-gradient-13" x1="58.22" y1="57.38" x2="89.45" y2="57.38" xlink:href="#linear-gradient"/>
    <linearGradient id="linear-gradient-14" x1="83.44" y1="21.14" x2="119.42" y2="21.14" xlink:href="#linear-gradient"/>
    <linearGradient id="linear-gradient-15" x1="107.11" y1="25.48" x2="134.73" y2="25.48" xlink:href="#linear-gradient"/>
    <linearGradient id="linear-gradient-16" x1="128.83" y1="69.15" x2="159.52" y2="69.15" xlink:href="#linear-gradient"/>
    <linearGradient id="linear-gradient-17" x1="103.59" y1="82.17" x2="150.14" y2="82.17" xlink:href="#linear-gradient"/>
    <linearGradient id="linear-gradient-18" x1="58.15" y1="82.59" x2="100.38" y2="82.59" xlink:href="#linear-gradient"/>
    <linearGradient id="linear-gradient-19" x1="58.22" y1="57.38" x2="89.45" y2="57.38" xlink:href="#linear-gradient"/>
    <linearGradient id="linear-gradient-20" x1="83.44" y1="21.14" x2="119.42" y2="21.14" xlink:href="#linear-gradient"/>
    <linearGradient id="linear-gradient-21" x1="107.11" y1="25.48" x2="134.73" y2="25.48" xlink:href="#linear-gradient"/>
    <linearGradient id="linear-gradient-22" x1="128.83" y1="69.15" x2="159.52" y2="69.15" xlink:href="#linear-gradient"/>
    <linearGradient id="linear-gradient-23" x1="103.59" y1="82.17" x2="150.14" y2="82.17" xlink:href="#linear-gradient"/>
  </defs>
  <g>
    <polygon class="cls-25" points="129.17 68.08 129.17 114.27 160.41 114.27 160.41 83.88 145.85 68.08 129.17 68.08"/>
    <polygon class="cls-25" points="138.77 73.35 138.77 83.48 153.88 83.48 153.88 80.99 146.84 73.35 138.77 73.35"/>
    <polygon class="cls-25" points="48.75 52.36 7.74 111.41 6.6 73.35 30.66 52.36 48.75 52.36"/>
    <polygon class="cls-25" points="48.75 52.36 16.2 99.22 16.2 114.27 126.27 114.27 126.27 52.36 48.75 52.36"/>
    <rect class="cls-25" x="72.46" y="50.37" width="3.17" height="66.28" transform="translate(-3.92 3.64) rotate(-2.75)"/>
    <circle class="cls-25" cx="108.5" cy="116.57" r="9.12"/>
    <circle class="cls-25" cx="108.5" cy="116.57" r="12.43"/>
    <circle class="cls-25" cx="42.89" cy="116.57" r="9.12"/>
    <circle class="cls-25" cx="42.89" cy="116.57" r="12.43"/>
    <rect class="cls-25" x="85.95" y="50.24" width="3.17" height="66.28" transform="translate(-3.9 4.29) rotate(-2.75)"/>
    <rect class="cls-25" x="59.73" y="50.24" width="3.17" height="66.28" transform="translate(-3.93 3.03) rotate(-2.75)"/>
  </g>
  <g>
    <polygon class="cls-6" points="123.56 63.72 123.56 109.91 154.8 109.91 154.8 79.52 140.25 63.72 123.56 63.72"/>
    <polygon class="cls-7" points="133.16 68.99 133.16 79.12 148.28 79.12 148.28 76.63 141.24 68.99 133.16 68.99"/>
    <polygon class="cls-20" points="43.14 48 2.13 107.06 1 68.99 25.06 48 43.14 48"/>
    <polygon class="cls-12" points="43.14 48 10.6 94.86 10.6 109.91 120.66 109.91 120.66 48 43.14 48"/>
    <rect class="cls-5" x="66.86" y="46.02" width="3.17" height="66.28" transform="translate(-3.72 3.37) rotate(-2.75)"/>
    <circle class="cls-14" cx="102.9" cy="112.21" r="9.12"/>
    <circle class="cls-17" cx="102.9" cy="112.21" r="12.43"/>
    <circle class="cls-23" cx="37.28" cy="112.21" r="9.12"/>
    <circle class="cls-4" cx="37.28" cy="112.21" r="12.43"/>
    <rect class="cls-16" x="80.34" y="45.88" width="3.17" height="66.28" transform="translate(-3.69 4.02) rotate(-2.75)"/>
    <rect class="cls-18" x="54.12" y="45.88" width="3.17" height="66.28" transform="translate(-3.72 2.76) rotate(-2.75)"/>
  </g>
  <g>
    <polygon class="cls-25" points="99.38 74.78 99.38 90.39 68.17 90.39 59.15 74.88 59.22 74.78 99.38 74.78"/>
    <polygon class="cls-25" points="88.45 69.36 82.38 65.87 77.23 74.78 59.22 74.78 68.86 58.09 62.98 54.71 75.7 47.34 88.4 39.98 88.43 54.67 88.45 69.36"/>
    <polygon class="cls-25" points="97.85 38.54 84.44 30.54 100.43 3.74 118.36 3.93 118.42 4.04 97.85 38.54"/>
    <polygon class="cls-25" points="108.11 31.92 114.21 28.5 109.19 19.51 118.42 4.04 127.82 20.87 133.73 17.55 133.55 32.24 133.36 46.93 120.73 39.43 108.11 31.92"/>
    <polygon class="cls-25" points="129.83 55.28 143.51 47.78 158.52 75.15 149.25 90.51 149.14 90.5 129.83 55.28"/>
    <polygon class="cls-25" points="130.33 67.48 130.18 74.48 140.48 74.71 149.14 90.5 129.86 90.08 129.72 96.85 117.15 89.24 104.59 81.64 117.46 74.56 130.33 67.48"/>
  </g>
  <g>
    <polygon class="cls-21" points="99.38 74.78 99.38 90.39 68.17 90.39 59.15 74.88 59.22 74.78 99.38 74.78"/>
    <polygon class="cls-9" points="88.45 69.36 82.38 65.87 77.23 74.78 59.22 74.78 68.86 58.09 62.98 54.71 75.7 47.34 88.4 39.98 88.43 54.67 88.45 69.36"/>
    <polygon class="cls-3" points="97.85 38.54 84.44 30.54 100.43 3.74 118.36 3.93 118.42 4.04 97.85 38.54"/>
    <polygon class="cls-2" points="108.11 31.92 114.21 28.5 109.19 19.51 118.42 4.04 127.82 20.87 133.73 17.55 133.55 32.24 133.36 46.93 120.73 39.43 108.11 31.92"/>
    <polygon class="cls-1" points="129.83 55.28 143.51 47.78 158.52 75.15 149.25 90.51 149.14 90.5 129.83 55.28"/>
    <polygon class="cls-8" points="130.33 67.48 130.18 74.48 140.48 74.71 149.14 90.5 129.86 90.08 129.72 96.85 117.15 89.24 104.59 81.64 117.46 74.56 130.33 67.48"/>
  </g>
  <g>
    <polygon class="cls-26" points="95.64 71.05 95.64 86.65 64.43 86.65 55.42 71.15 55.48 71.05 95.64 71.05"/>
    <polygon class="cls-26" points="84.71 65.62 78.64 62.13 73.49 71.05 55.48 71.05 65.12 54.35 59.25 50.97 71.96 43.61 84.66 36.25 84.69 50.93 84.71 65.62"/>
    <polygon class="cls-26" points="94.11 34.8 80.71 26.81 96.69 0 114.63 .2 114.68 .3 94.11 34.8"/>
    <polygon class="cls-26" points="104.37 28.19 110.48 24.76 105.46 15.77 114.68 .3 124.09 17.13 130 13.82 129.81 28.51 129.63 43.19 117 35.69 104.37 28.19"/>
    <polygon class="cls-26" points="126.09 51.55 139.78 44.05 154.78 71.42 145.52 86.77 145.4 86.77 126.09 51.55"/>
    <polygon class="cls-26" points="126.59 63.74 126.45 70.74 136.74 70.97 145.4 86.77 126.12 86.34 125.99 93.12 113.42 85.51 100.85 77.91 113.72 70.82 126.59 63.74"/>
  </g>
  <g>
    <polygon class="cls-22" points="99.38 74.78 99.38 90.39 68.17 90.39 59.15 74.88 59.22 74.78 99.38 74.78"/>
    <polygon class="cls-13" points="88.45 69.36 82.38 65.87 77.23 74.78 59.22 74.78 68.86 58.09 62.98 54.71 75.7 47.34 88.4 39.98 88.43 54.67 88.45 69.36"/>
    <polygon class="cls-11" points="97.85 38.54 84.44 30.54 100.43 3.74 118.36 3.93 118.42 4.04 97.85 38.54"/>
    <polygon class="cls-19" points="108.11 31.92 114.21 28.5 109.19 19.51 118.42 4.04 127.82 20.87 133.73 17.55 133.55 32.24 133.36 46.93 120.73 39.43 108.11 31.92"/>
    <polygon class="cls-15" points="129.83 55.28 143.51 47.78 158.52 75.15 149.25 90.51 149.14 90.5 129.83 55.28"/>
    <polygon class="cls-10" points="130.33 67.48 130.18 74.48 140.48 74.71 149.14 90.5 129.86 90.08 129.72 96.85 117.15 89.24 104.59 81.64 117.46 74.56 130.33 67.48"/>
  </g>
  <path class="cls-24" d="M22.83,98.52l4.25,3.1c.38,.28,.88,.35,1.33,.2l4.96-1.74c1.13-.4,2.22,.67,1.85,1.81l-1.63,5c-.15,.45-.06,.95,.22,1.32l3.19,4.18c.73,.95,.05,2.32-1.15,2.32h-5.26c-.47,0-.92,.22-1.19,.61l-2.99,4.33c-.68,.98-2.19,.76-2.56-.38l-1.62-5c-.15-.45-.51-.8-.96-.94l-5.04-1.51c-1.15-.34-1.4-1.85-.43-2.55l4.26-3.08c.38-.28,.61-.73,.6-1.2l-.13-5.26c-.03-1.2,1.33-1.91,2.29-1.2Z"/>
  <path class="cls-24" d="M145.32,65.31l.67,3.68c.06,.33,.28,.61,.59,.75l3.41,1.53c.78,.35,.81,1.44,.07,1.84l-3.29,1.77c-.3,.16-.5,.46-.53,.79l-.41,3.72c-.09,.85-1.11,1.22-1.73,.63l-2.7-2.58c-.24-.23-.59-.33-.92-.26l-3.66,.76c-.83,.17-1.5-.68-1.13-1.45l1.62-3.37c.15-.3,.13-.66-.03-.95l-1.86-3.24c-.42-.74,.18-1.64,1.03-1.53l3.7,.5c.33,.05,.67-.08,.9-.33l2.51-2.77c.57-.63,1.62-.33,1.77,.51Z"/>
  <path class="cls-24" d="M149.51,29.16l4.64,5.32c.42,.48,1.05,.72,1.68,.65l7.01-.81c1.59-.18,2.71,1.54,1.88,2.92l-3.62,6.06c-.33,.55-.36,1.22-.1,1.8l2.94,6.42c.67,1.46-.63,3.05-2.19,2.69l-6.88-1.57c-.62-.14-1.27,.03-1.74,.46l-5.2,4.78c-1.18,1.09-3.1,.35-3.24-1.25l-.63-7.03c-.06-.63-.42-1.2-.98-1.51l-6.15-3.47c-1.4-.79-1.29-2.84,.19-3.47l6.49-2.77c.59-.25,1.01-.77,1.14-1.4l1.4-6.92c.32-1.57,2.3-2.1,3.36-.89Z"/>
</svg>