<?xml version="1.0" encoding="UTF-8"?>
<svg id="Layer_2" data-name="Layer 2" xmlns="http://www.w3.org/2000/svg" viewBox="0 0 160.5 135.19">
  <defs>
    <style>
      .cls-1 {
        fill: none;
        stroke: #b3b3b3;
        stroke-linejoin: round;
        stroke-width: 2px;
      }

      .cls-2 {
        fill: #f6f3ee;
      }
    </style>
  </defs>
  <rect class="cls-1" x="8.37" y="14.97" width="101.73" height="6.63"/>
  <rect class="cls-1" x="8.37" y="43.72" width="101.73" height="6.63"/>
  <rect class="cls-1" x="20.53" y="9.44" width="8.85" height="48.65"/>
  <rect class="cls-1" x="38.22" y="9.44" width="8.85" height="48.65"/>
  <rect class="cls-1" x="54.81" y="9.44" width="8.85" height="48.65"/>
  <rect class="cls-1" x="71.39" y="9.44" width="8.85" height="48.65"/>
  <rect class="cls-1" x="87.98" y="9.44" width="8.85" height="48.65"/>
  <path class="cls-1" d="M28.12,131.02v.25H4.35c0-38.16,43.88-69.09,98-69.09h15.5c-6.36,.37-12.55,1.17-18.51,2.37-41.1,8.21-71.21,34.87-71.21,66.47Z"/>
  <path class="cls-1" d="M155.93,62.18c-3.58,0-7.11,.14-10.59,.41-1.03,.07-2.06,.16-3.09,.27h-.01c-4.47,.44-8.84,1.1-13.1,1.95-41.1,8.21-71.21,34.87-71.21,66.47h-24.17v-.25c0-31.6,30.11-58.26,71.21-66.47,5.96-1.2,12.15-2,18.51-2.37h32.45Z"/>
  <path class="cls-1" d="M123.48,62.18c-6.36,.37-12.55,1.17-18.51,2.37-41.1,8.21-71.21,34.87-71.21,66.47v.25h-5.64v-.25c0-31.6,30.11-58.26,71.21-66.47,5.96-1.2,12.15-2,18.51-2.37h5.64Z"/>
  <polygon class="cls-2" points="104.75 .92 84.79 .92 74.81 18.21 84.79 35.5 104.75 35.5 114.74 18.21 104.75 .92"/>
  <rect class="cls-1" x="92.8" y="35.58" width="4.02" height="65.14"/>
  <polygon class="cls-1" points="104.79 1 84.83 1 74.85 18.29 84.83 35.58 104.79 35.58 114.78 18.29 104.79 1"/>
</svg>