<?xml version="1.0" encoding="UTF-8"?>
<svg id="Layer_1" data-name="Layer 1" xmlns="http://www.w3.org/2000/svg" xmlns:xlink="http://www.w3.org/1999/xlink" viewBox="0 0 160.5 135.19">
  <defs>
    <style>
      .cls-1 {
        fill: #bdc9ff;
      }

      .cls-2 {
        fill: #cfd7ff;
      }

      .cls-3 {
        stroke: url(#linear-gradient-12);
      }

      .cls-3, .cls-4, .cls-5, .cls-6, .cls-7, .cls-8, .cls-9, .cls-10, .cls-11, .cls-12, .cls-13, .cls-14 {
        fill: none;
        stroke-linejoin: round;
        stroke-width: 2px;
      }

      .cls-4 {
        stroke: url(#linear-gradient-9);
      }

      .cls-5 {
        stroke: url(#linear-gradient-5);
      }

      .cls-6 {
        stroke: url(#linear-gradient);
      }

      .cls-7 {
        stroke: url(#linear-gradient-2);
      }

      .cls-8 {
        stroke: url(#linear-gradient-4);
      }

      .cls-15 {
        fill: #f6f3ee;
      }

      .cls-9 {
        stroke: url(#linear-gradient-6);
      }

      .cls-10 {
        stroke: url(#linear-gradient-10);
      }

      .cls-11 {
        stroke: url(#linear-gradient-7);
      }

      .cls-12 {
        stroke: url(#linear-gradient-11);
      }

      .cls-16 {
        fill: #fdffa3;
        stroke: #fbb03b;
        stroke-miterlimit: 10;
      }

      .cls-13 {
        stroke: url(#linear-gradient-3);
      }

      .cls-14 {
        stroke: url(#linear-gradient-8);
      }
    </style>
    <linearGradient id="linear-gradient" x1="44.58" y1="-7.09" x2="73.88" y2="43.67" gradientUnits="userSpaceOnUse">
      <stop offset="0" stop-color="#a1b7ff"/>
      <stop offset=".5" stop-color="#616fe8"/>
      <stop offset="1" stop-color="#0800b3"/>
    </linearGradient>
    <linearGradient id="linear-gradient-2" y1="21.66" y2="72.42" xlink:href="#linear-gradient"/>
    <linearGradient id="linear-gradient-3" x1="12.81" y1="12.74" x2="37.09" y2="54.8" xlink:href="#linear-gradient"/>
    <linearGradient id="linear-gradient-4" x1="30.5" y1="12.74" x2="54.78" y2="54.8" xlink:href="#linear-gradient"/>
    <linearGradient id="linear-gradient-5" x1="47.09" y1="12.74" x2="71.37" y2="54.8" xlink:href="#linear-gradient"/>
    <linearGradient id="linear-gradient-6" x1="63.68" y1="12.74" x2="87.95" y2="54.8" xlink:href="#linear-gradient"/>
    <linearGradient id="linear-gradient-7" x1="80.26" y1="12.74" x2="104.54" y2="54.8" xlink:href="#linear-gradient"/>
    <linearGradient id="linear-gradient-8" x1="47.2" y1="72.65" x2="68.31" y2="109.22" xlink:href="#linear-gradient"/>
    <linearGradient id="linear-gradient-9" x1="79.75" y1="70.59" x2="101.07" y2="107.52" xlink:href="#linear-gradient"/>
    <linearGradient id="linear-gradient-10" x1="64.06" y1="76.39" x2="80.75" y2="105.3" gradientUnits="userSpaceOnUse">
      <stop offset="0" stop-color="#6b8eff"/>
      <stop offset=".5" stop-color="#4653c7"/>
      <stop offset="1" stop-color="#0800b3"/>
    </linearGradient>
    <linearGradient id="linear-gradient-11" x1="79.71" y1="41.98" x2="109.92" y2="94.31" xlink:href="#linear-gradient"/>
    <linearGradient id="linear-gradient-12" x1="84.33" y1=".13" x2="105.29" y2="36.44" xlink:href="#linear-gradient"/>
  </defs>
  <rect class="cls-2" x="12.94" y="18.89" width="101.73" height="6.63"/>
  <rect class="cls-2" x="12.94" y="47.64" width="101.73" height="6.63"/>
  <rect class="cls-2" x="25.1" y="13.36" width="8.85" height="48.65"/>
  <rect class="cls-2" x="42.79" y="13.36" width="8.85" height="48.65"/>
  <rect class="cls-2" x="59.38" y="13.36" width="8.85" height="48.65"/>
  <rect class="cls-2" x="75.96" y="13.36" width="8.85" height="48.65"/>
  <rect class="cls-1" x="92.55" y="13.36" width="8.85" height="48.65"/>
  <path class="cls-2" d="M32.69,134.94v.25H8.92c0-38.16,43.88-69.09,98-69.09h15.5c-6.36,.37-12.55,1.17-18.51,2.37-41.1,8.21-71.21,34.87-71.21,66.47Z"/>
  <rect class="cls-2" x="97.37" y="39.5" width="4.02" height="65.14"/>
  <path class="cls-2" d="M160.5,66.1c-3.58,0-7.11,.14-10.59,.41-1.03,.07-2.06,.16-3.09,.27h-.01c-4.47,.44-8.84,1.1-13.1,1.95-41.1,8.21-71.21,34.87-71.21,66.47h-24.17v-.25c0-31.6,30.11-58.26,71.21-66.47,5.96-1.2,12.15-2,18.51-2.37h32.45Z"/>
  <path class="cls-2" d="M128.05,66.1c-6.36,.37-12.55,1.17-18.51,2.37-41.1,8.21-71.21,34.87-71.21,66.47v.25h-5.64v-.25c0-31.6,30.11-58.26,71.21-66.47,5.96-1.2,12.15-2,18.51-2.37h5.64Z"/>
  <rect class="cls-6" x="8.37" y="14.97" width="101.73" height="6.63"/>
  <rect class="cls-7" x="8.37" y="43.72" width="101.73" height="6.63"/>
  <rect class="cls-13" x="20.53" y="9.44" width="8.85" height="48.65"/>
  <rect class="cls-8" x="38.22" y="9.44" width="8.85" height="48.65"/>
  <rect class="cls-5" x="54.81" y="9.44" width="8.85" height="48.65"/>
  <rect class="cls-9" x="71.39" y="9.44" width="8.85" height="48.65"/>
  <rect class="cls-11" x="87.98" y="9.44" width="8.85" height="48.65"/>
  <path class="cls-14" d="M28.12,131.02v.25H4.35c0-38.16,43.88-69.09,98-69.09h15.5c-6.36,.37-12.55,1.17-18.51,2.37-41.1,8.21-71.21,34.87-71.21,66.47Z"/>
  <path class="cls-4" d="M155.93,62.18c-3.58,0-7.11,.14-10.59,.41-1.03,.07-2.06,.16-3.09,.27h-.01c-4.47,.44-8.84,1.1-13.1,1.95-41.1,8.21-71.21,34.87-71.21,66.47h-24.17v-.25c0-31.6,30.11-58.26,71.21-66.47,5.96-1.2,12.15-2,18.51-2.37h32.45Z"/>
  <path class="cls-10" d="M123.48,62.18c-6.36,.37-12.55,1.17-18.51,2.37-41.1,8.21-71.21,34.87-71.21,66.47v.25h-5.64v-.25c0-31.6,30.11-58.26,71.21-66.47,5.96-1.2,12.15-2,18.51-2.37h5.64Z"/>
  <polygon class="cls-2" points="106.75 4.92 86.79 4.92 76.81 22.21 86.79 39.5 106.75 39.5 116.74 22.21 106.75 4.92"/>
  <polygon class="cls-15" points="104.75 .92 84.79 .92 74.81 18.21 84.79 35.5 104.75 35.5 114.74 18.21 104.75 .92"/>
  <path class="cls-16" d="M19.79,79.17l1.99,7.14c.18,.65,.67,1.16,1.3,1.38l7.01,2.41c1.59,.55,1.87,2.69,.46,3.62l-6.18,4.1c-.56,.37-.9,.99-.91,1.66l-.13,7.41c-.03,1.69-1.98,2.61-3.3,1.56l-5.81-4.61c-.52-.42-1.22-.55-1.86-.35l-7.09,2.17c-1.61,.49-3.09-1.08-2.5-2.66l2.59-6.95c.23-.63,.14-1.33-.24-1.88l-4.26-6.07c-.97-1.38,.07-3.27,1.75-3.2l7.41,.32c.67,.03,1.31-.27,1.71-.81l4.46-5.92c1.01-1.35,3.13-.95,3.59,.68Z"/>
  <path class="cls-16" d="M128.31,37.94l4.86,3.25c.44,.29,.99,.35,1.49,.16l5.43-2.17c1.24-.49,2.5,.65,2.14,1.93l-1.59,5.63c-.14,.51-.03,1.05,.31,1.46l3.74,4.5c.85,1.02,.16,2.58-1.17,2.63l-5.84,.23c-.53,.02-1.01,.3-1.29,.75l-3.12,4.94c-.71,1.12-2.4,.95-2.86-.3l-2.03-5.49c-.18-.5-.6-.87-1.11-1l-5.67-1.44c-1.29-.33-1.64-1.99-.6-2.82l4.59-3.62c.41-.33,.64-.84,.61-1.36l-.38-5.84c-.09-1.33,1.39-2.18,2.49-1.44Z"/>
  <path class="cls-16" d="M115.25,58.95l.85,3.48c.08,.31,.3,.57,.61,.69l3.35,1.27c.76,.29,.86,1.33,.17,1.75l-3.05,1.88c-.28,.17-.45,.46-.46,.79l-.18,3.58c-.04,.81-1,1.23-1.62,.7l-2.73-2.31c-.25-.21-.58-.28-.89-.2l-3.46,.94c-.79,.21-1.48-.57-1.17-1.32l1.36-3.31c.12-.3,.09-.64-.09-.91l-1.96-3c-.45-.68,.08-1.58,.9-1.52l3.57,.27c.32,.02,.64-.11,.84-.36l2.24-2.79c.51-.63,1.53-.41,1.72,.38Z"/>
  <rect class="cls-12" x="92.8" y="35.58" width="4.02" height="65.14"/>
  <polygon class="cls-3" points="104.79 1 84.83 1 74.85 18.29 84.83 35.58 104.79 35.58 114.78 18.29 104.79 1"/>
</svg>